<?xml version="1.0" encoding="UTF-8"?>
<svg version="1.1" xmlns="http://www.w3.org/2000/svg" width="500" height="500">
<path d="M0 0 C165 0 330 0 500 0 C500 165 500 330 500 500 C335 500 170 500 0 500 C0 335 0 170 0 0 Z " fill="#F9FEFE" transform="translate(0,0)"/>
<path d="M0 0 C0 8.58 0 17.16 0 26 C2.3925 26.103125 4.785 26.20625 7.25 26.3125 C14.45780593 26.7226825 21.0856064 27.84946026 28 30 C29.08539063 30.31582031 30.17078125 30.63164062 31.2890625 30.95703125 C53.56549227 38.07241457 72.32459837 54.26393869 83.28588867 74.85253906 C94.59113085 97.12426943 98.8620829 124.78687425 91 149 C87.43225439 158.54544988 83.25847865 167.89242539 77 176 C78.52885142 179.62808228 80.6844786 181.90996607 83.47802734 184.6574707 C84.40594086 185.57555008 85.33385437 186.49362946 86.28988647 187.43952942 C86.78604839 187.92583139 87.28221031 188.41213337 87.79340744 188.91317177 C89.35403319 190.44352593 90.9077942 191.98055449 92.45986938 193.51957703 C96.87296484 197.89301965 101.29858504 202.25370803 105.72753906 206.61108398 C108.4400265 209.28066139 111.14500875 211.95766596 113.84581375 214.63905907 C114.87226819 215.65500083 115.90162328 216.66802114 116.93400192 217.67794228 C128.98922746 229.47142065 128.98922746 229.47142065 130.49609375 236.22265625 C130.34816061 240.8677568 129.60193628 244.14195656 127 248 C123.62100911 250.89627791 120.67377561 251.3575175 116.2578125 251.49609375 C108.17206568 249.71946772 102.83285225 243.16781457 97.30755043 237.47191429 C95.71339807 235.82983751 94.10891601 234.19851503 92.50126648 232.56965637 C87.93660216 227.94105767 83.39098668 223.29395036 78.85229492 218.63989258 C76.06664716 215.78489967 73.26904492 212.94207673 70.46385765 210.106287 C69.39887792 209.02451204 68.33873937 207.93794913 67.28356361 206.84660912 C65.81384571 205.32668352 64.32955334 203.82255865 62.84106445 202.32104492 C61.58033867 201.03009163 61.58033867 201.03009163 60.29414368 199.71305847 C58.19245223 197.75937153 58.19245223 197.75937153 55.87809753 198.12763977 C53.03894303 199.44640274 50.42144401 201.05667662 47.75 202.6875 C32.37711395 211.72414016 17.88669789 215 0 215 C0 231.5 0 248 0 265 C-17.22473773 258.11010491 -32.28115266 246.2420597 -45.52148438 233.42724609 C-47.05844409 231.94358254 -48.61501765 230.48227723 -50.171875 229.01953125 C-58.81603482 220.771 -66.04273931 211.69585412 -73 202 C-73.4444043 201.38431152 -73.88880859 200.76862305 -74.34667969 200.13427734 C-98.00693686 167.00809868 -110.87502401 128.93256556 -117 89 C-117.13277344 88.16742676 -117.26554687 87.33485352 -117.40234375 86.47705078 C-118.03866107 82.408016 -118.51447921 78.36537698 -118.80957031 74.25390625 C-118.95069221 72.58360195 -119.13672786 70.91696129 -119.34667969 69.25390625 C-121.39685383 52.52272641 -121.39685383 52.52272641 -117.62890625 46.98486328 C-113.79762548 43.20371341 -109.24893331 40.72063431 -104.48486328 38.28857422 C-102.0192339 37.00997411 -99.67097161 35.61960723 -97.30859375 34.16015625 C-73.07936106 19.30287083 -47.36075896 10.22249137 -20 3 C-18.96343262 2.71318359 -17.92686523 2.42636719 -16.85888672 2.13085938 C-15.83166504 1.85564453 -14.80444336 1.58042969 -13.74609375 1.296875 C-12.83400146 1.04776367 -11.92190918 0.79865234 -10.98217773 0.54199219 C-8 0 -8 0 0 0 Z " fill="#FCAD01" transform="translate(239,105)"/>
<path d="M0 0 C0.85787109 0.18272461 1.71574219 0.36544922 2.59960938 0.55371094 C43.59536274 9.48943528 82.54055176 26.67335041 116.23876953 51.70556641 C117.82301497 52.86992312 119.43910675 53.99064947 121.05859375 55.10546875 C130.1154065 61.63229517 133.81287677 70.13650634 135.62939453 80.93774414 C136.28979931 86.39456703 136.24685863 91.82338868 136.1875 97.3125 C136.18685547 98.43333984 136.18621094 99.55417969 136.18554688 100.70898438 C136.11391798 114.5811145 134.72657135 127.86310949 132.15356445 141.4675293 C131.68909597 143.92904192 131.23922151 146.39290212 130.79101562 148.85742188 C124.88435152 180.86742056 113.6080625 210.48840357 98 239 C95 239 95 239 93.00708008 237.34765625 C92.26868896 236.59355469 91.53029785 235.83945312 90.76953125 235.0625 C89.96708984 234.25039063 89.16464844 233.43828125 88.33789062 232.6015625 C87.50451172 231.74304688 86.67113281 230.88453125 85.8125 230 C84.96751953 229.14148438 84.12253906 228.28296875 83.25195312 227.3984375 C81.16111702 225.2721635 79.07758017 223.13921536 77 221 C78.26167243 216.80756766 79.91140617 213.03541424 81.86816406 209.14135742 C99.71614397 173.40304909 107.79491498 133.73073008 108.1875 93.9375 C108.20071289 93.0314502 108.21392578 92.12540039 108.22753906 91.19189453 C108.22850586 90.33321777 108.22947266 89.47454102 108.23046875 88.58984375 C108.23457764 87.82534912 108.23868652 87.06085449 108.24291992 86.27319336 C107.85021393 82.59833359 106.96061204 79.91479824 104.25439453 77.33764648 C103.20421143 76.61170288 103.20421143 76.61170288 102.1328125 75.87109375 C100.94365234 75.04001099 100.94365234 75.04001099 99.73046875 74.19213867 C98.87066406 73.61310791 98.01085937 73.03407715 97.125 72.4375 C96.23167969 71.82688721 95.33835937 71.21627441 94.41796875 70.5871582 C78.94689069 60.12166825 63.29697829 51.08655465 46 44 C45.11989258 43.63310059 44.23978516 43.26620117 43.33300781 42.88818359 C8.97195041 28.71747222 -22.70195417 20.49034051 -59 32 C-60.91150836 32.57934287 -62.82302366 33.1586631 -64.73472595 33.73736572 C-90.76683061 41.67549097 -115.37480865 52.18794126 -137.94824219 67.60058594 C-140.01541484 69.01051379 -142.1036136 70.38461364 -144.1953125 71.7578125 C-145.48605567 72.62771978 -146.7752133 73.49998596 -148.0625 74.375 C-148.6412085 74.7555957 -149.21991699 75.13619141 -149.81616211 75.52832031 C-153.6850566 78.24703496 -155.09359517 80.38008204 -156 85 C-156.26116996 88.06957114 -156.28436406 91.10818177 -156.25 94.1875 C-156.24395752 95.06607666 -156.23791504 95.94465332 -156.23168945 96.84985352 C-156.09686036 105.98146021 -155.1710833 114.95121283 -154 124 C-153.89816406 124.83644043 -153.79632813 125.67288086 -153.69140625 126.53466797 C-146.47828112 185.49751336 -119.08762082 248.78162283 -72 287 C-70.94767136 287.88773012 -69.89561339 288.77578115 -68.84375 289.6640625 C-47.94045303 307.98851393 -47.94045303 307.98851393 -23.1640625 316.875 C-19.19326503 315.77690292 -15.80386401 314.13793629 -12.1875 312.1875 C-11.45192871 311.79369141 -10.71635742 311.39988281 -9.95849609 310.99414062 C9.86248306 300.0961814 29.8566188 284.78025065 44 267 C49.48798961 267.88806622 52.53938517 272.02613455 56.3125 275.8125 C57.06595703 276.53759766 57.81941406 277.26269531 58.59570312 278.00976562 C59.30275391 278.71423828 60.00980469 279.41871094 60.73828125 280.14453125 C61.38837158 280.78753174 62.03846191 281.43053223 62.70825195 282.09301758 C64 284 64 284 63.92529297 285.99462891 C62.78096763 288.47470498 61.38490784 290.00364191 59.45703125 291.94140625 C58.35125732 293.0562439 58.35125732 293.0562439 57.22314453 294.19360352 C56.42763184 294.97533936 55.63211914 295.7570752 54.8125 296.5625 C53.99894043 297.3680835 53.18538086 298.17366699 52.34716797 299.00366211 C46.09825697 305.10746318 39.6198187 310.65415519 32.58642578 315.82373047 C31.03690027 316.97263997 29.51597918 318.15981341 27.99609375 319.34765625 C-10.62131937 349.32628721 -10.62131937 349.32628721 -25.40625 347.7421875 C-30.87499987 346.17733438 -35.91143338 343.50630893 -41 341 C-41.99217529 340.51200928 -41.99217529 340.51200928 -43.00439453 340.01416016 C-64.6421598 329.24907732 -83.62428233 314.71104246 -101 298 C-101.49129395 297.53062012 -101.98258789 297.06124023 -102.48876953 296.57763672 C-109.21592034 290.12183317 -115.25630212 283.33749887 -121 276 C-121.79019531 275.01515625 -122.58039063 274.0303125 -123.39453125 273.015625 C-148.60353519 241.30332739 -167.22368278 202.5127927 -176 163 C-176.20963379 162.08138184 -176.41926758 161.16276367 -176.63525391 160.21630859 C-192.44250251 90.04047493 -192.44250251 90.04047493 -178.19140625 64.74609375 C-153.44493519 28.47831486 -90.55507077 10.52070545 -50.72045898 0.68994141 C-48.46485414 0.11789265 -46.23456978 -0.49537899 -44.00390625 -1.15625 C-29.66765054 -5.18307865 -14.29193443 -3.10172678 0 0 Z " fill="#022B23" transform="translate(263,67)"/>
<path d="M0 0 C13.33658675 10.00733602 23.59286392 25.15781336 26.2734375 41.8046875 C28.3793798 61.53292961 25.52516335 79.76127006 13.453125 95.95703125 C11.28338552 98.42696235 9.03485866 100.7237492 6.66015625 102.99609375 C5.974375 103.70121094 5.28859375 104.40632813 4.58203125 105.1328125 C-7.32238656 116.70655204 -24.13507747 122.30666818 -40.52734375 122.43359375 C-60.09196646 122.15719318 -76.65529469 113.63584886 -90.33984375 99.99609375 C-104.45309141 84.60235419 -108.15811111 66.31443813 -107.46728516 46.140625 C-106.47415569 29.42865323 -96.42572664 14.69162481 -84.77734375 3.37109375 C-60.02452236 -18.01322442 -26.64529442 -17.8274272 0 0 Z " fill="#FAFEFD" transform="translate(279.33984375,171.00390625)"/>
</svg>
