<?xml version="1.0" encoding="UTF-8"?>
<svg version="1.1" xmlns="http://www.w3.org/2000/svg" width="469" height="383">
<path d="M0 0 C154.77 0 309.54 0 469 0 C469 126.39 469 252.78 469 383 C314.23 383 159.46 383 0 383 C0 256.61 0 130.22 0 0 Z " fill="#F9FEFE" transform="translate(0,0)"/>
<path d="M0 0 C0 4.62 0 9.24 0 14 C1.5675 14.0825 3.135 14.165 4.75 14.25 C19.36991947 15.637018 31.54299917 22.1280339 40.99609375 33.33984375 C48.69595612 43.56129847 53.5006617 56.03595029 52 69 C50.74706488 77.66613455 48.46671366 84.91508176 44.20703125 92.57421875 C42.77725864 94.99606351 42.77725864 94.99606351 43 98 C44.81762518 100.06824114 46.64297108 101.96614421 48.6171875 103.875 C49.18954132 104.4407373 49.76189514 105.00647461 50.35159302 105.58935547 C52.18579411 107.40011041 54.02982313 109.2004364 55.875 111 C57.71130514 112.80122263 59.54545923 114.60456098 61.37698364 116.41064453 C62.51792172 117.5346355 63.66192696 118.6555234 64.80929565 119.77294922 C70.83181211 125.68252819 70.83181211 125.68252819 71.375 129.9375 C71 133 71 133 69.4375 135.4375 C67 137 67 137 63.5625 137.0625 C59.36828941 135.81159509 57.86794568 134.24530696 55 131 C54.21625 130.401875 53.4325 129.80375 52.625 129.1875 C49.76322875 126.80269063 47.52392176 124.19865213 45.11328125 121.37109375 C40.95791047 116.70878309 36.45069213 112.37825772 32 108 C28.59829583 109.30509432 25.40526806 110.79494681 22.1875 112.5 C14.41624621 116.39712283 9.00777227 117 0 117 C0 125.91 0 134.82 0 144 C-18.40493323 136.63802671 -33.48514011 120.45030934 -44 104 C-44.3520752 103.45021484 -44.70415039 102.90042969 -45.06689453 102.33398438 C-57.77989776 82.13007998 -66.81656129 54.26747007 -65.84765625 30.21875 C-64.81307868 26.29021582 -63.62994798 24.97402824 -60.4375 22.5 C-58.32432764 21.27516761 -56.17496027 20.11142234 -54 19 C-52.87722656 18.33871094 -51.75445312 17.67742187 -50.59765625 16.99609375 C-36.27119979 8.66055725 -16.84895608 0 0 0 Z " fill="#F13197" transform="translate(240,87)"/>
<path d="M0 0 C17.43931415 11.2212485 17.43931415 11.2212485 20.2890625 18.12109375 C25.64859532 47.36294042 16.66848833 85.48751716 0 110 C-1.08839774 109.11032656 -2.17044608 108.21288426 -3.25 107.3125 C-3.85328125 106.81363281 -4.4565625 106.31476563 -5.078125 105.80078125 C-7.3109424 103.7086495 -9.13539658 101.42150931 -11 99 C-10.49210938 97.95585937 -9.98421875 96.91171875 -9.4609375 95.8359375 C1.63420826 72.37407356 6.77447449 47.87318466 6 22 C5.26394531 21.73445313 4.52789062 21.46890625 3.76953125 21.1953125 C1.0297295 20.01283107 -0.94948485 18.67978955 -3.3125 16.875 C-14.72499746 8.74253885 -27.80385181 3.4910335 -41 -1 C-41.6923877 -1.24411621 -42.38477539 -1.48823242 -43.09814453 -1.73974609 C-67.37321776 -10.20338344 -89.3128529 -3.88421117 -111.91308594 6.9140625 C-126.33977115 13.41694045 -126.33977115 13.41694045 -137 24 C-138.07246184 43.07744625 -135.82789008 62.11165564 -129 80 C-128.68788574 80.82000488 -128.37577148 81.64000977 -128.05419922 82.48486328 C-121.10325954 100.38278928 -111.77922025 114.76769085 -99 129 C-98.41992188 129.66386719 -97.83984375 130.32773438 -97.2421875 131.01171875 C-89.93829439 138.88450805 -77.3319954 148.83582641 -67 152 C-52.43530261 148.83037961 -38.87387327 135.38312748 -29 125 C-25.78475695 126.40844718 -23.67816132 128.10344786 -21.25 130.625 C-20.63640625 131.25664062 -20.0228125 131.88828125 -19.390625 132.5390625 C-18.93171875 133.02117187 -18.4728125 133.50328125 -18 134 C-23.90851282 147.70403758 -41.66812454 156.7650892 -54 164 C-55.04285156 164.61230469 -56.08570313 165.22460938 -57.16015625 165.85546875 C-61.2821807 168.01793727 -64.55731285 169.6369871 -69.1875 168.375 C-70.82231919 167.64874039 -72.42203021 166.84267322 -74 166 C-74.58974609 165.69690918 -75.17949219 165.39381836 -75.78710938 165.08154297 C-84.56679085 160.5421963 -92.5654411 155.56064993 -100 149 C-100.82886719 148.29101562 -101.65773437 147.58203125 -102.51171875 146.8515625 C-127.74153691 124.82859719 -144.83106377 93.85373881 -150.65771484 60.90625 C-150.96192244 59.21206107 -151.31540672 57.52688653 -151.67578125 55.84375 C-153.09712252 48.49531894 -153.2338927 41.14957851 -153.3125 33.6875 C-153.33022461 32.66060059 -153.34794922 31.63370117 -153.36621094 30.57568359 C-153.35929772 23.49308725 -152.80496516 17.59809323 -148.30078125 11.8203125 C-129.35827864 -4.33105515 -106.77374529 -13.53516859 -83 -20 C-82.27361328 -20.20536377 -81.54722656 -20.41072754 -80.79882812 -20.62231445 C-54.94816616 -27.62301706 -21.7328643 -13.51834379 0 0 Z " fill="#442DD0" transform="translate(306,87)"/>
<path d="M0 0 C0.99 0.721875 1.98 1.44375 3 2.1875 C11.5003273 9.54998822 14.23118632 19.08067687 15.4375 29.9375 C14.98886534 39.28080435 11.40374283 48.23963227 5 55 C4.49855469 55.54140625 3.99710937 56.0828125 3.48046875 56.640625 C-4.11922863 63.96296116 -13.68239095 66.76015745 -24.05834961 66.59155273 C-34.40949671 66.02662867 -43.09978598 61.65661332 -50 54 C-56.36164791 46.34863304 -59.70900331 37.25874408 -59.28125 27.2421875 C-57.95357875 16.65769727 -53.30748177 7.43779575 -45.125 0.5625 C-32.28106569 -9.00295258 -12.91290927 -10.4533075 0 0 Z " fill="#FAFCFE" transform="translate(262,123)"/>
<path d="M0 0 C-0.33 13.86 -0.66 27.72 -1 42 C-4.96 42 -8.92 42 -13 42 C-13 31.11 -13 20.22 -13 9 C-13.99 9.495 -13.99 9.495 -15 10 C-17.2072923 10.07092842 -19.41667452 10.08415025 -21.625 10.0625 C-22.81351563 10.05347656 -24.00203125 10.04445313 -25.2265625 10.03515625 C-26.14179687 10.02355469 -27.05703125 10.01195312 -28 10 C-28 12.97 -28 15.94 -28 19 C-24.37 19 -20.74 19 -17 19 C-17 21.64 -17 24.28 -17 27 C-20.96 27 -24.92 27 -29 27 C-29 31.95 -29 36.9 -29 42 C-32.63 42 -36.26 42 -40 42 C-40 28.47 -40 14.94 -40 1 C-33.998125 0.7525 -33.998125 0.7525 -27.875 0.5 C-26.64507324 0.44779297 -25.41514648 0.39558594 -24.14794922 0.34179688 C-22.61678467 0.28088867 -22.61678467 0.28088867 -21.0546875 0.21875 C-19.53077393 0.1559082 -19.53077393 0.1559082 -17.97607422 0.09179688 C-11.98556768 -0.04650783 -5.99210287 0 0 0 Z " fill="#F5B2DB" transform="translate(99,275)"/>
<path d="M0 0 C3.3 0 6.6 0 10 0 C10.33 0.66 10.66 1.32 11 2 C11.66 1.34 12.32 0.68 13 0 C15.09375 -0.23046875 15.09375 -0.23046875 17.5 -0.1875 C18.69109375 -0.17783203 18.69109375 -0.17783203 19.90625 -0.16796875 C22 0 22 0 24 1 C24 1.66 24 2.32 24 3 C24.66 3 25.32 3 26 3 C26 2.34 26 1.68 26 1 C28.29986731 -0.14993366 29.81469088 -0.2316929 32.375 -0.3125 C33.53128906 -0.36857422 33.53128906 -0.36857422 34.7109375 -0.42578125 C37.93693797 0.17427686 38.97356315 1.45051839 41 4 C41.45410156 6.93261719 41.45410156 6.93261719 41.390625 10.296875 C41.37773437 11.50214844 41.36484375 12.70742188 41.3515625 13.94921875 C41.31804687 15.20347656 41.28453125 16.45773437 41.25 17.75 C41.23195313 19.01972656 41.21390625 20.28945313 41.1953125 21.59765625 C41.14817153 24.73253077 41.08237664 27.8658856 41 31 C37.37 31 33.74 31 30 31 C30 23.08 30 15.16 30 7 C28.68 7 27.36 7 26 7 C26 14.92 26 22.84 26 31 C22.37 31 18.74 31 15 31 C15 23.08 15 15.16 15 7 C13.68 7 12.36 7 11 7 C11 14.92 11 22.84 11 31 C7.37 31 3.74 31 0 31 C0 20.77 0 10.54 0 0 Z " fill="#4934CF" transform="translate(256,286)"/>
<path d="M0 0 C3.8775 -0.061875 7.755 -0.12375 11.75 -0.1875 C13.5748291 -0.22846802 13.5748291 -0.22846802 15.43652344 -0.27026367 C16.40106445 -0.27775635 17.36560547 -0.28524902 18.359375 -0.29296875 C19.34389648 -0.3086792 20.32841797 -0.32438965 21.34277344 -0.34057617 C24.47711427 0.06115164 25.81762082 0.72631849 28 3 C28.51757812 5.02124023 28.51757812 5.02124023 28.53125 7.30859375 C28.53640625 8.13810547 28.5415625 8.96761719 28.546875 9.82226562 C28.53140625 10.68529297 28.5159375 11.54832031 28.5 12.4375 C28.51546875 13.29666016 28.5309375 14.15582031 28.546875 15.04101562 C28.50771475 21.35071095 28.50771475 21.35071095 25.96875 24.59765625 C25.3190625 25.06042969 24.669375 25.52320313 24 26 C24.433125 26.84304688 24.86625 27.68609375 25.3125 28.5546875 C25.869375 29.65039062 26.42625 30.74609375 27 31.875 C27.556875 32.96554687 28.11375 34.05609375 28.6875 35.1796875 C30 38 30 38 30 40 C26.04 40 22.08 40 18 40 C17.16235732 38.04350603 16.33000941 36.08474444 15.5 34.125 C15.0359375 33.03445313 14.571875 31.94390625 14.09375 30.8203125 C13 28 13 28 13 26 C12.34 26 11.68 26 11 26 C11 30.62 11 35.24 11 40 C7.37 40 3.74 40 0 40 C0 26.8 0 13.6 0 0 Z " fill="#4C3BC2" transform="translate(163,277)"/>
<path d="M0 0 C4 0 8 0 12 0 C13.12728516 -0.03480469 13.12728516 -0.03480469 14.27734375 -0.0703125 C15.15519531 -0.08835937 16.03304688 -0.10640625 16.9375 -0.125 C17.81277344 -0.14820313 18.68804687 -0.17140625 19.58984375 -0.1953125 C22 0 22 0 25 2 C25.66 1.34 26.32 0.68 27 0 C29.27734375 -0.30078125 29.27734375 -0.30078125 31.9375 -0.3125 C33.25041016 -0.33763672 33.25041016 -0.33763672 34.58984375 -0.36328125 C37 0 37 0 38.63232422 1.12158203 C40.64141487 3.88094359 40.33886835 6.03669788 40.29296875 9.41796875 C40.2784668 11.29838867 40.2784668 11.29838867 40.26367188 13.21679688 C40.23853516 14.52712891 40.21339844 15.83746094 40.1875 17.1875 C40.17244967 18.52277163 40.15876187 19.85805937 40.14648438 21.19335938 C40.11107694 24.46264576 40.0616889 27.73112093 40 31 C36.7 31 33.4 31 30 31 C29.505 19.615 29.505 19.615 29 8 C28.01 8 27.02 8 26 8 C25.67 15.59 25.34 23.18 25 31 C21.7 31 18.4 31 15 31 C14.67 23.41 14.34 15.82 14 8 C13.01 8 12.02 8 11 8 C10.67 15.59 10.34 23.18 10 31 C6.7 31 3.4 31 0 31 C0 20.77 0 10.54 0 0 Z " fill="#422CCD" transform="translate(302,286)"/>
<path d="M0 0 C3.3 0 6.6 0 10 0 C10 13.86 10 27.72 10 42 C6.7 42 3.4 42 0 42 C-0.33 41.34 -0.66 40.68 -1 40 C-1.66 40.66 -2.32 41.32 -3 42 C-9.85389239 42.78651224 -9.85389239 42.78651224 -13.7265625 40.12890625 C-16.99142291 35.63551589 -16.70031401 31.9157181 -16.5625 26.5 C-16.57345703 25.56285156 -16.58441406 24.62570312 -16.59570312 23.66015625 C-16.55013307 19.37657095 -16.36807804 16.65957609 -14.25390625 12.87109375 C-11.69114212 10.74359978 -10.65571073 10.39242971 -7.375 10.5625 C-6.59898437 10.58441406 -5.82296875 10.60632813 -5.0234375 10.62890625 C-3 11 -3 11 -1 13 C-0.67 8.71 -0.34 4.42 0 0 Z " fill="#EF3297" transform="translate(148,275)"/>
<path d="M0 0 C1.16402344 0.01933594 1.16402344 0.01933594 2.3515625 0.0390625 C4.375 0.375 4.375 0.375 6.375 2.375 C6.705 1.715 7.035 1.055 7.375 0.375 C10.675 0.375 13.975 0.375 17.375 0.375 C17.375 10.605 17.375 20.835 17.375 31.375 C14.075 31.375 10.775 31.375 7.375 31.375 C7.045 30.715 6.715 30.055 6.375 29.375 C5.715 30.035 5.055 30.695 4.375 31.375 C-2.46014126 32.15936047 -2.46014126 32.15936047 -6.3515625 29.5390625 C-9.68415792 24.90091423 -9.32176385 20.88263542 -9.1875 15.3125 C-9.19845703 14.31927734 -9.20941406 13.32605469 -9.22070312 12.30273438 C-9.14868386 5.17282709 -9.14868386 5.17282709 -6.87890625 1.71484375 C-4.33509871 0.202667 -2.93886821 -0.1081189 0 0 Z " fill="#432DCD" transform="translate(354.625,285.625)"/>
<path d="M0 0 C0.80695313 -0.00708984 1.61390625 -0.01417969 2.4453125 -0.02148438 C6.9307794 0.02662707 9.70229661 0.07125522 13 3.4375 C13.84464742 7.36462731 13.6023619 11.3677067 13.5625 15.375 C13.58634766 16.47263672 13.61019531 17.57027344 13.63476562 18.70117188 C13.62029152 26.6088572 13.62029152 26.6088572 10.96484375 30.15625 C7.25581896 31.75909602 3.97553337 32.06234693 0 32 C-0.69867188 32.02384766 -1.39734375 32.04769531 -2.1171875 32.07226562 C-5.72671837 32.06204997 -7.89627723 31.50200217 -10.96484375 29.59375 C-13.97444197 24.9262733 -13.6935684 20.81256724 -13.5625 15.375 C-13.57345703 14.38177734 -13.58441406 13.38855469 -13.59570312 12.36523438 C-13.55491813 8.32751949 -13.50355173 5.34576306 -11.52734375 1.78125 C-7.71214942 -0.24723045 -4.25445533 -0.10534195 0 0 Z " fill="#4A38C6" transform="translate(208,285.5625)"/>
<path d="M0 0 C0.83402344 -0.00386719 1.66804687 -0.00773437 2.52734375 -0.01171875 C3.82865234 0.00568359 3.82865234 0.00568359 5.15625 0.0234375 C6.02378906 0.01183594 6.89132813 0.00023437 7.78515625 -0.01171875 C9.03619141 -0.00591797 9.03619141 -0.00591797 10.3125 0 C11.45428711 0.00507568 11.45428711 0.00507568 12.61914062 0.01025391 C15.271846 0.51574307 16.12542219 1.17791575 17.65625 3.3984375 C18.02856445 5.89453125 18.02856445 5.89453125 18.01953125 8.8359375 C18.01888672 9.89554687 18.01824219 10.95515625 18.01757812 12.046875 C18.00146484 13.15289062 17.98535156 14.25890625 17.96875 15.3984375 C17.97358398 17.05746094 17.97358398 17.05746094 17.97851562 18.75 C17.92332949 26.99781826 17.92332949 26.99781826 15.65625 30.3984375 C11.98431862 31.62241463 8.54541441 31.65954988 4.71875 31.7109375 C4.00267578 31.73994141 3.28660156 31.76894531 2.54882812 31.79882812 C-0.79010514 31.83905624 -2.85199545 31.77315948 -5.54931641 29.71777344 C-7.74993986 26.8734302 -7.84668215 25.42608657 -7.83984375 21.86328125 C-7.84048828 20.80689453 -7.84113281 19.75050781 -7.84179688 18.66210938 C-7.82181641 17.56447266 -7.80183594 16.46683594 -7.78125 15.3359375 C-7.78833984 14.23443359 -7.79542969 13.13292969 -7.80273438 11.99804688 C-7.73897305 3.96902493 -7.73897305 3.96902493 -6.08813477 1.58569336 C-3.9112497 0.10407095 -2.62129631 0.01165267 0 0 Z " fill="#4430C8" transform="translate(233.34375,285.6015625)"/>
<path d="M0 0 C0.80695313 -0.02835937 1.61390625 -0.05671875 2.4453125 -0.0859375 C6.47947459 -0.09925157 8.36230055 -0.02717792 11.546875 2.60546875 C14.15296245 7.79662682 13.23100438 12.78264164 13 18.5 C7.72 18.5 2.44 18.5 -3 18.5 C-3 20.48 -3 22.46 -3 24.5 C-1.35 24.17 0.3 23.84 2 23.5 C2.33 22.51 2.66 21.52 3 20.5 C6.3 20.5 9.6 20.5 13 20.5 C13.45166047 24.38428001 13.37798352 25.99992122 10.98046875 29.171875 C7.28693485 32.05699453 4.49808326 32.21603236 0 32.0625 C-0.69867188 32.07345703 -1.39734375 32.08441406 -2.1171875 32.09570312 C-5.39795417 32.04927718 -7.95657313 31.51876682 -10.96484375 30.21875 C-14.33434604 25.71745711 -13.68107195 20.89501431 -13.5625 15.4375 C-13.57345703 14.33599609 -13.58441406 13.23449219 -13.59570312 12.09960938 C-13.52177858 4.03197714 -13.52177858 4.03197714 -11.22631836 1.69165039 C-7.55354869 -0.27422183 -4.08879415 -0.01306324 0 0 Z " fill="#442DCF" transform="translate(409,285.5)"/>
<path d="M0 0 C4 0 8 0 12 0 C13.12728516 -0.05220703 13.12728516 -0.05220703 14.27734375 -0.10546875 C15.15519531 -0.13253906 16.03304687 -0.15960938 16.9375 -0.1875 C17.81277344 -0.22230469 18.68804687 -0.25710938 19.58984375 -0.29296875 C22 0 22 0 23.63232422 1.1171875 C25.63933417 3.88014016 25.33889672 6.0346086 25.29296875 9.41796875 C25.28330078 10.67158203 25.27363281 11.92519531 25.26367188 13.21679688 C25.23853516 14.52712891 25.21339844 15.83746094 25.1875 17.1875 C25.17244967 18.52277163 25.15876187 19.85805937 25.14648438 21.19335938 C25.11107694 24.46264576 25.0616889 27.73112093 25 31 C21.7 31 18.4 31 15 31 C14.67 23.41 14.34 15.82 14 8 C13.01 8 12.02 8 11 8 C10.67 15.59 10.34 23.18 10 31 C6.7 31 3.4 31 0 31 C0 20.77 0 10.54 0 0 Z " fill="#E73895" transform="translate(103,286)"/>
<path d="M0 0 C7.59 0 15.18 0 23 0 C23 2.31 23 4.62 23 7 C18.71 7 14.42 7 10 7 C10 10.3 10 13.6 10 17 C13.96 17 17.92 17 22 17 C22 19.64 22 22.28 22 25 C18.04 25 14.08 25 10 25 C10 29.95 10 34.9 10 40 C6.7 40 3.4 40 0 40 C0 26.8 0 13.6 0 0 Z " fill="#ED3395" transform="translate(60,277)"/>
<path d="M0 0 C6.27 0 12.54 0 19 0 C19 10.125 19 10.125 17 15 C16.67 15 16.34 15 16 15 C15.67 12.36 15.34 9.72 15 7 C12.69 6.67 10.38 6.34 8 6 C8 9.63 8 13.26 8 17 C7.01 17.33 6.02 17.66 5 18 C5.33 18.66 5.66 19.32 6 20 C6.66 20 7.32 20 8 20 C8.33 19.34 8.66 18.68 9 18 C12.3 18 15.6 18 19 18 C19.98497223 22.06301046 20.30933684 25.82395272 20 30 C18.625 31.9375 18.625 31.9375 17 33 C16.34 33 15.68 33 15 33 C14.67 31.35 14.34 29.7 14 28 C13.01 27.67 12.02 27.34 11 27 C11 26.34 11 25.68 11 25 C10.34 25 9.68 25 9 25 C8.67 28.96 8.34 32.92 8 37 C5.36 37 2.72 37 0 37 C0 24.79 0 12.58 0 0 Z " fill="#422AD4" transform="translate(165,278)"/>
<path d="M0 0 C3.3 0 6.6 0 10 0 C10 1.98 10 3.96 10 6 C11.32 6 12.64 6 14 6 C14 8.31 14 10.62 14 13 C12.68 13 11.36 13 10 13 C10 18.28 10 23.56 10 29 C11.32 29 12.64 29 14 29 C14 31.64 14 34.28 14 37 C12.58376784 37.05447047 11.16691809 37.09300508 9.75 37.125 C8.96109375 37.14820313 8.1721875 37.17140625 7.359375 37.1953125 C4.75385683 36.97962391 3.20013023 36.3921178 1 35 C-0.20029908 32.59940183 -0.11459743 31.10639351 -0.09765625 28.4296875 C-0.09282227 27.08583984 -0.09282227 27.08583984 -0.08789062 25.71484375 C-0.07951172 24.77769531 -0.07113281 23.84054687 -0.0625 22.875 C-0.05798828 21.93011719 -0.05347656 20.98523438 -0.04882812 20.01171875 C-0.03702357 17.67441613 -0.02055759 15.33723939 0 13 C-1.32 13 -2.64 13 -4 13 C-4 10.69 -4 8.38 -4 6 C-2.68 6 -1.36 6 0 6 C0 4.02 0 2.04 0 0 Z " fill="#422BD2" transform="translate(379,280)"/>
<path d="M0 0 C2.875 0.25 2.875 0.25 6 1 C7.4375 2.9375 7.4375 2.9375 8 5 C7.67 5.66 7.34 6.32 7 7 C6.77377919 8.70363822 6.59111527 10.41328701 6.4375 12.125 C6.35371094 13.03507812 6.26992187 13.94515625 6.18359375 14.8828125 C6.09271484 15.93082031 6.09271484 15.93082031 6 17 C6.33 15.68 6.66 14.36 7 13 C8.65 13 10.3 13 12 13 C13.31886422 16.95659266 13.26518132 19.82339427 13 24 C9.29182221 26.47211853 6.3574099 26.36730992 2.0625 26.375 C1.34642578 26.39949219 0.63035156 26.42398437 -0.10742188 26.44921875 C-3.36532045 26.46733496 -5.66344636 26.18888747 -8.51953125 24.5859375 C-10.83888412 20.53471956 -10.17250471 16.790249 -9.75 12.25 C-9.68425781 11.36183594 -9.61851562 10.47367187 -9.55078125 9.55859375 C-9.38606251 7.37018765 -9.20189011 5.18523822 -9 3 C-6.6739143 2.61936779 -4.33944736 2.28730055 -2 2 C-0.00383446 3.99616554 -0.59016573 7.81701963 -0.4375 10.5625 C-0.39431641 11.27341797 -0.35113281 11.98433594 -0.30664062 12.71679688 C-0.20028223 14.47761912 -0.09961154 16.2387832 0 18 C1.32 18 2.64 18 4 18 C4.33 12.72 4.66 7.44 5 2 C3.35 2 1.7 2 0 2 C0 1.34 0 0.68 0 0 Z " fill="#432EC7" transform="translate(206,291)"/>
<path d="M0 0 C3.3 0 6.6 0 10 0 C10 10.23 10 20.46 10 31 C6.7 31 3.4 31 0 31 C0 20.77 0 10.54 0 0 Z " fill="#E93695" transform="translate(87,286)"/>
<path d="M0 0 C0.9075 0.103125 1.815 0.20625 2.75 0.3125 C2.75 1.3025 2.75 2.2925 2.75 3.3125 C2.09 3.3125 1.43 3.3125 0.75 3.3125 C0.75 4.9625 0.75 6.6125 0.75 8.3125 C1.08 7.6525 1.41 6.9925 1.75 6.3125 C3.4 6.3125 5.05 6.3125 6.75 6.3125 C6.77684679 8.95840014 6.79676357 11.60403096 6.8125 14.25 C6.82087891 15.00474609 6.82925781 15.75949219 6.83789062 16.53710938 C6.84652441 18.46244313 6.80224333 20.38785581 6.75 22.3125 C5.75 23.3125 5.75 23.3125 3.1875 23.375 C2.383125 23.354375 1.57875 23.33375 0.75 23.3125 C0.935625 23.951875 1.12125 24.59125 1.3125 25.25 C1.456875 25.930625 1.60125 26.61125 1.75 27.3125 C0.75 28.3125 0.75 28.3125 -2.8125 28.375 C-3.946875 28.354375 -5.08125 28.33375 -6.25 28.3125 C-7.67677273 24.03218182 -7.514656 19.92207758 -7.5625 15.4375 C-7.59150391 14.53902344 -7.62050781 13.64054687 -7.65039062 12.71484375 C-7.69148575 8.43462873 -7.62873385 5.96164168 -5.43359375 2.19921875 C-3.25 0.3125 -3.25 0.3125 0 0 Z " fill="#422AD3" transform="translate(234.25,286.6875)"/>
<path d="M0 0 C2.97 0 5.94 0 9 0 C9.33 0.66 9.66 1.32 10 2 C10.66 1.34 11.32 0.68 12 0 C14.1640625 -0.1953125 14.1640625 -0.1953125 16.625 -0.125 C17.85089844 -0.09792969 17.85089844 -0.09792969 19.1015625 -0.0703125 C20.04128906 -0.03550781 20.04128906 -0.03550781 21 0 C21 0.33 21 0.66 21 1 C19.7625 1.04125 18.525 1.0825 17.25 1.125 C13.92635482 1.23578817 13.11662024 1.87680961 10.78125 4.34375 C7.99651143 8.94336991 8.32416709 14.14959118 8.25 19.375 C8.22035156 20.39722656 8.19070313 21.41945313 8.16015625 22.47265625 C8.08980506 24.98184853 8.03693794 27.49013054 8 30 C5.36 30 2.72 30 0 30 C0 20.1 0 10.2 0 0 Z " fill="#422CD0" transform="translate(257,286)"/>
<path d="M0 0 C0.79921875 0.04511719 1.5984375 0.09023438 2.421875 0.13671875 C3.02515625 0.19472656 3.6284375 0.25273437 4.25 0.3125 C4.25 0.6425 4.25 0.9725 4.25 1.3125 C1.94 1.3125 -0.37 1.3125 -2.75 1.3125 C-2.75 1.9725 -2.75 2.6325 -2.75 3.3125 C-3.74 3.3125 -4.73 3.3125 -5.75 3.3125 C-5.75 9.9125 -5.75 16.5125 -5.75 23.3125 C-4.43 23.6425 -3.11 23.9725 -1.75 24.3125 C-1.42 24.9725 -1.09 25.6325 -0.75 26.3125 C0.24 25.6525 1.23 24.9925 2.25 24.3125 C1.59 24.3125 0.93 24.3125 0.25 24.3125 C0.22301578 21.87492587 0.20316901 19.43765085 0.1875 17 C0.17912109 16.30970703 0.17074219 15.61941406 0.16210938 14.90820312 C0.14692094 11.7641975 0.24806673 9.31829981 1.25 6.3125 C2.9 6.3125 4.55 6.3125 6.25 6.3125 C7.86863273 9.54976545 7.4345318 13.07206876 7.4375 16.625 C7.44974609 17.38490234 7.46199219 18.14480469 7.47460938 18.92773438 C7.4856633 23.1687573 7.25276538 26.46331896 5.25 30.3125 C3.42206911 32.14043089 0.89719905 31.65869549 -1.546875 31.8359375 C-5.2404583 30.95838402 -6.53787934 29.36606415 -8.75 26.3125 C-9.45452607 22.79435234 -9.40350588 19.38878514 -9.3125 15.8125 C-9.32345703 14.87535156 -9.33441406 13.93820312 -9.34570312 12.97265625 C-9.30016076 8.69167397 -9.11304953 5.96762083 -7.01171875 2.17578125 C-4.39091172 0.0166708 -3.33730637 -0.24539017 0 0 Z " fill="#E94C9F" transform="translate(140.75,285.6875)"/>
<path d="M0 0 C0.99 0.33 1.98 0.66 3 1 C3 1.66 3 2.32 3 3 C3.99 3.33 4.98 3.66 6 4 C6.05449838 5.72880982 6.09301688 7.45812712 6.125 9.1875 C6.14820313 10.15042969 6.17140625 11.11335938 6.1953125 12.10546875 C5.9913544 15.12812778 5.26874632 17.26769985 4 20 C2.68 20 1.36 20 0 20 C0 19.34 0 18.68 0 18 C-0.99 18.33 -1.98 18.66 -3 19 C-4.134375 18.979375 -5.26875 18.95875 -6.4375 18.9375 C-9.76400349 18.99585971 -11.26464408 19.24937221 -14 21 C-14.33 19.68 -14.66 18.36 -15 17 C-14.01 16.67 -13.02 16.34 -12 16 C-11.67 12.7 -11.34 9.4 -11 6 C-8.69 6 -6.38 6 -4 6 C-3.34 7.32 -2.68 8.64 -2 10 C-0.83529804 7.03294039 -0.83529804 7.03294039 -1 3.875 C-1 1 -1 1 0 0 Z " fill="#4630D4" transform="translate(184,278)"/>
<path d="M0 0 C7.07195228 -0.67351927 7.07195228 -0.67351927 9.60498047 1.16479492 C11.56610057 3.74472838 11.34191199 5.54777915 11.29296875 8.76171875 C11.28330078 9.87998047 11.27363281 10.99824219 11.26367188 12.15039062 C11.23853516 13.31763672 11.21339844 14.48488281 11.1875 15.6875 C11.17396484 16.86634766 11.16042969 18.04519531 11.14648438 19.25976562 C11.11109326 22.17363411 11.06171809 25.08658945 11 28 C8.36 28 5.72 28 3 28 C3.01047363 27.31373535 3.02094727 26.6274707 3.03173828 25.92041016 C3.07321874 22.82197711 3.09930069 19.72360239 3.125 16.625 C3.14175781 15.54476563 3.15851563 14.46453125 3.17578125 13.3515625 C3.18544922 11.8046875 3.18544922 11.8046875 3.1953125 10.2265625 C3.21102295 8.79691162 3.21102295 8.79691162 3.22705078 7.33837891 C3.23131867 4.8076787 3.23131867 4.8076787 1 3 C0.01 3 -0.98 3 -2 3 C-1.34 2.01 -0.68 1.02 0 0 Z " fill="#F32F97" transform="translate(116,287)"/>
<path d="M0 0 C1.26457031 0.05800781 2.52914062 0.11601562 3.83203125 0.17578125 C5.10433594 0.22089844 6.37664062 0.26601563 7.6875 0.3125 C8.66332031 0.37050781 9.63914063 0.42851562 10.64453125 0.48828125 C11.30453125 2.46828125 11.96453125 4.44828125 12.64453125 6.48828125 C8.4686538 7.8802404 6.50978349 6.31151344 2.64453125 4.48828125 C2.64453125 5.14828125 2.64453125 5.80828125 2.64453125 6.48828125 C4.29453125 6.48828125 5.94453125 6.48828125 7.64453125 6.48828125 C7.64453125 11.76828125 7.64453125 17.04828125 7.64453125 22.48828125 C5.99453125 22.81828125 4.34453125 23.14828125 2.64453125 23.48828125 C0.64836571 21.49211571 1.23469698 17.67126162 1.08203125 14.92578125 C1.03884766 14.21486328 0.99566406 13.50394531 0.95117188 12.77148438 C0.84481348 11.01066213 0.74414279 9.24949805 0.64453125 7.48828125 C-1.33546875 7.81828125 -3.31546875 8.14828125 -5.35546875 8.48828125 C-6.35546875 5.48828125 -6.35546875 5.48828125 -5.3671875 2.8203125 C-3.35546875 0.48828125 -3.35546875 0.48828125 0 0 Z " fill="#4B35D7" transform="translate(203.35546875,286.51171875)"/>
<path d="M0 0 C3.63 0.33 7.26 0.66 11 1 C11.33 2.32 11.66 3.64 12 5 C11.34 5 10.68 5 10 5 C9.67 6.32 9.34 7.64 9 9 C6.69 9.66 4.38 10.32 2 11 C2.66 11.66 3.32 12.32 4 13 C2.515 15.475 2.515 15.475 1 18 C-0.65 17.67 -2.3 17.34 -4 17 C-4.66 18.32 -5.32 19.64 -6 21 C-6 15.06 -6 9.12 -6 3 C-3.03 3.495 -3.03 3.495 0 4 C0 2.68 0 1.36 0 0 Z " fill="#442ECF" transform="translate(403,290)"/>
<path d="M0 0 C0.83402344 -0.00386719 1.66804687 -0.00773437 2.52734375 -0.01171875 C3.82865234 0.00568359 3.82865234 0.00568359 5.15625 0.0234375 C6.02378906 0.01183594 6.89132813 0.00023437 7.78515625 -0.01171875 C9.03619141 -0.00591797 9.03619141 -0.00591797 10.3125 0 C11.45428711 0.00507568 11.45428711 0.00507568 12.61914062 0.01025391 C15.27539675 0.51641968 16.1300778 1.16879763 17.65625 3.3984375 C17.99682617 5.94213867 17.99682617 5.94213867 17.94921875 8.94140625 C17.93955078 10.01455078 17.92988281 11.08769531 17.91992188 12.19335938 C17.89478516 13.31291016 17.86964844 14.43246094 17.84375 15.5859375 C17.82344727 17.28266602 17.82344727 17.28266602 17.80273438 19.01367188 C17.76734958 21.80907067 17.71797948 24.60351642 17.65625 27.3984375 C17.32625 27.3984375 16.99625 27.3984375 16.65625 27.3984375 C16.0095902 19.38447504 15.48947777 11.44056505 15.65625 3.3984375 C14.66625 3.3984375 13.67625 3.3984375 12.65625 3.3984375 C12.65625 2.7384375 12.65625 2.0784375 12.65625 1.3984375 C10.67133358 1.66519954 10.67133358 1.66519954 8.65625 2.3984375 C8.32625 3.3884375 7.99625 4.3784375 7.65625 5.3984375 C8.31625 5.7284375 8.97625 6.0584375 9.65625 6.3984375 C9.71023987 8.66901127 9.74903742 10.93995038 9.78125 13.2109375 C9.80445313 14.47550781 9.82765625 15.74007813 9.8515625 17.04296875 C9.65625 20.3984375 9.65625 20.3984375 7.65625 23.3984375 C7.65625 18.1184375 7.65625 12.8384375 7.65625 7.3984375 C6.00625 7.3984375 4.35625 7.3984375 2.65625 7.3984375 C2.65625 12.6784375 2.65625 17.9584375 2.65625 23.3984375 C2.32625 23.3984375 1.99625 23.3984375 1.65625 23.3984375 C1.46148861 20.79462754 1.27516386 18.19068217 1.09375 15.5859375 C1.03767578 14.84794922 0.98160156 14.10996094 0.92382812 13.34960938 C0.69855276 10.03055234 0.59369188 7.58611186 1.65625 4.3984375 C2.31625 4.3984375 2.97625 4.3984375 3.65625 4.3984375 C3.65625 3.4084375 3.65625 2.4184375 3.65625 1.3984375 C1.67625 1.3984375 -0.30375 1.3984375 -2.34375 1.3984375 C-2.653125 2.0378125 -2.9625 2.6771875 -3.28125 3.3359375 C-4.34375 5.3984375 -4.34375 5.3984375 -5.34375 6.3984375 C-5.43051255 7.85194337 -5.45077881 9.30956209 -5.44140625 10.765625 C-5.43818359 11.65121094 -5.43496094 12.53679687 -5.43164062 13.44921875 C-5.42326172 14.38121094 -5.41488281 15.31320312 -5.40625 16.2734375 C-5.40173828 17.19769531 -5.39722656 18.12195313 -5.39257812 19.07421875 C-5.38383471 20.79542301 -5.37304722 22.51661888 -5.35961914 24.23779297 C-5.34698508 25.95796955 -5.34375 27.67821452 -5.34375 29.3984375 C-8.43886984 26.30331766 -7.63781478 23.06545341 -7.66601562 18.83789062 C-7.66279297 17.72349609 -7.65957031 16.60910156 -7.65625 15.4609375 C-7.67236328 14.35041016 -7.68847656 13.23988281 -7.70507812 12.09570312 C-7.70572266 11.03158203 -7.70636719 9.96746094 -7.70703125 8.87109375 C-7.71001221 7.89406494 -7.71299316 6.91703613 -7.71606445 5.91040039 C-7.34375 3.3984375 -7.34375 3.3984375 -6.0925293 1.58129883 C-3.91297068 0.10706157 -2.61965625 0.01164538 0 0 Z " fill="#4534BB" transform="translate(233.34375,285.6015625)"/>
<path d="M0 0 C0.05410136 3.06273831 0.09372225 6.12451452 0.125 9.1875 C0.14175781 10.05181641 0.15851563 10.91613281 0.17578125 11.80664062 C0.21024062 16.3035886 0.1966048 19.9403489 -2 24 C-3 25 -3 25 -6.875 25.25 C-10.70325694 25.2225573 -10.70325694 25.2225573 -13 23.5 C-13.33 23.005 -13.66 22.51 -14 22 C-11.36 22 -8.72 22 -6 22 C-6.33 21.34 -6.66 20.68 -7 20 C-8.26621664 16.20135008 -7.93953998 12.80406168 -7.6875 8.875 C-7.63432617 7.76318359 -7.63432617 7.76318359 -7.58007812 6.62890625 C-7.46477495 4.74619477 -7.24065411 2.87082414 -7 1 C-4.53721199 -0.231394 -2.7204945 -0.07159196 0 0 Z " fill="#4735C1" transform="translate(362,292)"/>
<path d="M0 0 C2.475 0.99 2.475 0.99 5 2 C5 7.94 5 13.88 5 20 C5.66 20 6.32 20 7 20 C7 21.32 7 22.64 7 24 C0.25 24.125 0.25 24.125 -2 23 C-2.0580476 19.72924117 -2.09361165 16.45861476 -2.125 13.1875 C-2.14175781 12.25873047 -2.15851563 11.32996094 -2.17578125 10.37304688 C-2.18222656 9.48037109 -2.18867188 8.58769531 -2.1953125 7.66796875 C-2.20578613 6.84578857 -2.21625977 6.0236084 -2.22705078 5.17651367 C-2 3 -2 3 0 0 Z " fill="#412AD4" transform="translate(350,291)"/>
<path d="M0 0 C0.33 0 0.66 0 1 0 C1 1.65 1 3.3 1 5 C1.66 5 2.32 5 3 5 C3.0093457 5.64549805 3.01869141 6.29099609 3.02832031 6.95605469 C3.08209101 9.88813944 3.1657234 12.81864008 3.25 15.75 C3.26417969 16.76578125 3.27835937 17.7815625 3.29296875 18.828125 C3.36991535 24.682146 3.36991535 24.682146 6.046875 29.703125 C6.69140625 30.13109375 7.3359375 30.5590625 8 31 C7.05125 30.814375 6.1025 30.62875 5.125 30.4375 C2.10131207 29.71313368 2.10131207 29.71313368 0 31 C0 28.36 0 25.72 0 23 C-1.32 23 -2.64 23 -4 23 C-4 17.72 -4 12.44 -4 7 C-2.68 7 -1.36 7 0 7 C0 4.69 0 2.38 0 0 Z " fill="#E5E3FD" transform="translate(393,286)"/>
<path d="M0 0 C7.92 0 15.84 0 24 0 C24.33 0.66 24.66 1.32 25 2 C13.615 1.505 13.615 1.505 2 1 C2 13.21 2 25.42 2 38 C4.64 38 7.28 38 10 38 C10 33.71 10 29.42 10 25 C10.33 25 10.66 25 11 25 C11 29.95 11 34.9 11 40 C7.37 40 3.74 40 0 40 C0 26.8 0 13.6 0 0 Z " fill="#5647BC" transform="translate(163,277)"/>
<path d="M0 0 C1.98 0.495 1.98 0.495 4 1 C4 8.59 4 16.18 4 24 C7.3 24 10.6 24 14 24 C14 24.33 14 24.66 14 25 C12.43969749 25.22419881 10.8765495 25.42863758 9.3125 25.625 C8.00732422 25.79902344 8.00732422 25.79902344 6.67578125 25.9765625 C3.64472157 26.00311193 1.75905289 25.18447252 -1 24 C-1.02887236 20.18751574 -1.04675492 16.3750593 -1.0625 12.5625 C-1.07087891 11.47388672 -1.07925781 10.38527344 -1.08789062 9.26367188 C-1.09111328 8.22919922 -1.09433594 7.19472656 -1.09765625 6.12890625 C-1.10289307 5.17056885 -1.10812988 4.21223145 -1.11352539 3.22485352 C-1 1 -1 1 0 0 Z " fill="#FBDAF2" transform="translate(114,293)"/>
<path d="M0 0 C1.32 0 2.64 0 4 0 C4 0.66 4 1.32 4 2 C4.99 2 5.98 2 7 2 C7.19555932 4.72880461 7.38170447 7.45771069 7.5625 10.1875 C7.61857422 10.95642578 7.67464844 11.72535156 7.73242188 12.51757812 C7.99141557 16.54061353 8.06573607 20.06072372 7 24 C6.01 23.67 5.02 23.34 4 23 C4.33 21.35 4.66 19.7 5 18 C3.68 18.33 2.36 18.66 1 19 C1 14.38 1 9.76 1 5 C-0.32 4.34 -1.64 3.68 -3 3 C-2.34 3 -1.68 3 -1 3 C-0.67 2.01 -0.34 1.02 0 0 Z " fill="#412AD5" transform="translate(242,287)"/>
<path d="M0 0 C0.79921875 0.03609375 1.5984375 0.0721875 2.421875 0.109375 C3.02515625 0.15578125 3.6284375 0.2021875 4.25 0.25 C4.53875 0.889375 4.8275 1.52875 5.125 2.1875 C6.07823451 4.40206079 6.07823451 4.40206079 8.25 5.25 C3.48947038 7.22387813 0.28511899 7.2570238 -4.75 6.25 C-5.92469444 8.59938888 -5.95034889 10.20073205 -6.06640625 12.8203125 C-6.10830078 13.71621094 -6.15019531 14.61210937 -6.19335938 15.53515625 C-6.25233398 16.94087891 -6.25233398 16.94087891 -6.3125 18.375 C-6.35568359 19.31988281 -6.39886719 20.26476562 -6.44335938 21.23828125 C-6.54959072 23.57537092 -6.65163176 25.9125683 -6.75 28.25 C-10.17679211 24.82320789 -9.11909685 20.02077613 -9.125 15.375 C-9.14949219 14.36824219 -9.17398437 13.36148437 -9.19921875 12.32421875 C-9.22842863 4.99253855 -9.22842863 4.99253855 -7.0234375 1.5703125 C-4.41482368 0.05534434 -2.99084316 -0.17593195 0 0 Z " fill="#5644D0" transform="translate(354.75,285.75)"/>
<path d="M0 0 C1.65 0 3.3 0 5 0 C6 3 6 3 6 11 C-0.27 11 -6.54 11 -13 11 C-13.33 9.35 -13.66 7.7 -14 6 C-13.13375 6.185625 -12.2675 6.37125 -11.375 6.5625 C-7.88675576 7.01467981 -5.38635438 6.9235512 -2 6 C0.2773501 3.18490007 0.2773501 3.18490007 0 0 Z " fill="#412AD5" transform="translate(213,304)"/>
<path d="M0 0 C1.60379341 -0.05416188 3.20811406 -0.09286638 4.8125 -0.125 C5.70582031 -0.14820313 6.59914063 -0.17140625 7.51953125 -0.1953125 C10 0 10 0 13 2 C13.66 1.34 14.32 0.68 15 0 C17.3828125 -0.1953125 17.3828125 -0.1953125 20.125 -0.125 C21.03507812 -0.10695313 21.94515625 -0.08890625 22.8828125 -0.0703125 C23.58148438 -0.04710937 24.28015625 -0.02390625 25 0 C25 0.33 25 0.66 25 1 C22.69 1.33 20.38 1.66 18 2 C17.67 2.99 17.34 3.98 17 5 C16.01 4.67 15.02 4.34 14 4 C13.67 12.91 13.34 21.82 13 31 C9.7 31 6.4 31 3 31 C3 23.41 3 15.82 3 8 C3.33 8 3.66 8 4 8 C4 14.93 4 21.86 4 29 C6.64 29 9.28 29 12 29 C11.67 21.74 11.34 14.48 11 7 C10.34 6.67 9.68 6.34 9 6 C8.67 4.68 8.34 3.36 8 2 C5.03 2 2.06 2 -1 2 C-0.67 1.34 -0.34 0.68 0 0 Z " fill="#4232B0" transform="translate(314,286)"/>
<path d="M0 0 C3.3 0 6.6 0 10 0 C10 1.98 10 3.96 10 6 C8 3 8 3 8 1 C5.69 1 3.38 1 1 1 C1 2.98 1 4.96 1 7 C0.01 7 -0.98 7 -2 7 C-2 8.32 -2 9.64 -2 11 C-1.35708008 11.22671387 -0.71416016 11.45342773 -0.05175781 11.68701172 C2 13 2 13 2.63769531 15.24658203 C2.70053711 16.15778809 2.76337891 17.06899414 2.828125 18.0078125 C2.90546875 18.99394531 2.9828125 19.98007812 3.0625 20.99609375 C3.124375 22.02863281 3.18625 23.06117188 3.25 24.125 C3.36601562 25.68541016 3.36601562 25.68541016 3.484375 27.27734375 C3.67325592 29.85084633 3.8443576 32.42430816 4 35 C6.97 35.33 9.94 35.66 13 36 C13 34.02 13 32.04 13 30 C12.34 29.67 11.68 29.34 11 29 C11.99 29 12.98 29 14 29 C14 31.64 14 34.28 14 37 C12.58376784 37.05447047 11.16691809 37.09300508 9.75 37.125 C8.96109375 37.14820313 8.1721875 37.17140625 7.359375 37.1953125 C4.75385683 36.97962391 3.20013023 36.3921178 1 35 C-0.20029908 32.59940183 -0.11459743 31.10639351 -0.09765625 28.4296875 C-0.09282227 27.08583984 -0.09282227 27.08583984 -0.08789062 25.71484375 C-0.07951172 24.77769531 -0.07113281 23.84054687 -0.0625 22.875 C-0.05798828 21.93011719 -0.05347656 20.98523438 -0.04882812 20.01171875 C-0.03702357 17.67441613 -0.02055759 15.33723939 0 13 C-1.32 13 -2.64 13 -4 13 C-4 10.69 -4 8.38 -4 6 C-2.68 6 -1.36 6 0 6 C0 4.02 0 2.04 0 0 Z " fill="#4737B8" transform="translate(379,280)"/>
<path d="M0 0 C3.21524305 1.40844718 5.32183868 3.10344786 7.75 5.625 C8.67039062 6.57246094 8.67039062 6.57246094 9.609375 7.5390625 C10.29773438 8.26222656 10.29773438 8.26222656 11 9 C9.46781315 12.63061667 7.2816856 14.9863773 4.5 17.75 C3.7059375 18.54921875 2.911875 19.3484375 2.09375 20.171875 C0 22 0 22 -2 22 C-2.33 20.02 -2.66 18.04 -3 16 C-2.34 16 -1.68 16 -1 16 C-1 15.34 -1 14.68 -1 14 C-0.34 14 0.32 14 1 14 C1.33 12.35 1.66 10.7 2 9 C3.65 9.33 5.3 9.66 7 10 C6.45291273 7.46255685 6.45291273 7.46255685 5 5 C1.94727535 4.10169161 1.94727535 4.10169161 -1 4 C-1 1 -1 1 0 0 Z " fill="#4530CA" transform="translate(277,212)"/>
<path d="M0 0 C1.9375 0.8125 1.9375 0.8125 4 2 C5.37020997 6.11062991 5.06276637 9.66912062 5 14 C1.04 14 -2.92 14 -7 14 C-6.67 13.01 -6.34 12.02 -6 11 C-5.34 11 -4.68 11 -4 11 C-3.79503906 10.37351562 -3.59007812 9.74703125 -3.37890625 9.1015625 C-3.10949219 8.28429687 -2.84007812 7.46703125 -2.5625 6.625 C-2.29566406 5.81289063 -2.02882813 5.00078125 -1.75390625 4.1640625 C-1 2 -1 2 0 0 Z " fill="#422AD4" transform="translate(416,289)"/>
<path d="M0 0 C0.33 0.99 0.66 1.98 1 3 C0.67 3.66 0.34 4.32 0 5 C-0.23714528 8.1402818 -0.1851834 11.28923801 -0.1875 14.4375 C-0.19974609 15.30955078 -0.21199219 16.18160156 -0.22460938 17.08007812 C-0.22654297 17.91861328 -0.22847656 18.75714844 -0.23046875 19.62109375 C-0.23457764 20.3886499 -0.23868652 21.15620605 -0.24291992 21.94702148 C-0.12050975 24.31007913 -0.12050975 24.31007913 2 27 C4.02887311 27.41480107 4.02887311 27.41480107 6.3515625 27.29296875 C7.62773437 27.2784668 7.62773437 27.2784668 8.9296875 27.26367188 C9.81914062 27.23853516 10.70859375 27.21339844 11.625 27.1875 C12.97078125 27.16719727 12.97078125 27.16719727 14.34375 27.14648438 C16.56309789 27.11106925 18.78125188 27.06168461 21 27 C21 26.01 21 25.02 21 24 C21.66 24 22.32 24 23 24 C23 22.68 23 21.36 23 20 C20.03 20 17.06 20 14 20 C14 19.67 14 19.34 14 19 C17.3 19 20.6 19 24 19 C24.45166047 22.88428001 24.37798352 24.49992122 21.98046875 27.671875 C18.28693485 30.55699453 15.49808326 30.71603236 11 30.5625 C10.30132812 30.57345703 9.60265625 30.58441406 8.8828125 30.59570312 C5.60194401 30.54927574 3.03823595 30.0164299 0.02734375 28.72265625 C-3.33576668 24.2061091 -2.60037141 19.33598259 -2.4375 13.875 C-2.43169922 12.76511719 -2.42589844 11.65523438 -2.41992188 10.51171875 C-2.29481679 2.29481679 -2.29481679 2.29481679 0 0 Z " fill="#4938B8" transform="translate(398,287)"/>
<path d="M0 0 C8.79200541 7.78720479 12.08959835 17.96710863 13.25 29.48046875 C13.41007443 35.13309699 12.2822435 40.51611931 11 46 C10.67 46 10.34 46 10 46 C10.02320313 44.79085937 10.04640625 43.58171875 10.0703125 42.3359375 C10.20152072 32.32823577 9.80401703 22.8737718 8 13 C7.34 13 6.68 13 6 13 C5.67 12.01 5.34 11.02 5 10 C4.34 10 3.68 10 3 10 C3 8.35 3 6.7 3 5 C2.34 5 1.68 5 1 5 C0.67 3.35 0.34 1.7 0 0 Z " fill="#E04E9A" transform="translate(279,120)"/>
<path d="M0 0 C1.65 0 3.3 0 5 0 C5 5.28 5 10.56 5 16 C3.35 16.33 1.7 16.66 0 17 C0 11.39 0 5.78 0 0 Z " fill="#E5E2FD" transform="translate(206,293)"/>
<path d="M0 0 C1.65 0 3.3 0 5 0 C5 5.28 5 10.56 5 16 C3.68 16.33 2.36 16.66 1 17 C0 16 0 16 -0.09765625 12.40234375 C-0.0909822 10.91403133 -0.07902183 9.42573568 -0.0625 7.9375 C-0.05798828 7.17888672 -0.05347656 6.42027344 -0.04882812 5.63867188 C-0.0370068 3.75908129 -0.01907078 1.87953101 0 0 Z " fill="#F9FCFE" transform="translate(236,293)"/>
<path d="M0 0 C0.66 0 1.32 0 2 0 C2 8.91 2 17.82 2 27 C-1.3 27 -4.6 27 -8 27 C-8 26.01 -8 25.02 -8 24 C-5.36 24 -2.72 24 0 24 C0 16.08 0 8.16 0 0 Z " fill="#5244BC" transform="translate(295,290)"/>
<path d="M0 0 C1.98 0.495 1.98 0.495 4 1 C4 5.95 4 10.9 4 16 C2.35 16 0.7 16 -1 16 C-1.02685095 13.52076199 -1.04676547 11.0418116 -1.0625 8.5625 C-1.07506836 7.50192383 -1.07506836 7.50192383 -1.08789062 6.41992188 C-1.09653588 4.61306441 -1.05220011 2.80612397 -1 1 C-0.67 0.67 -0.34 0.34 0 0 Z " fill="#FCD3F0" transform="translate(144,293)"/>
<path d="M0 0 C1.98 0.495 1.98 0.495 4 1 C4 5.95 4 10.9 4 16 C2.35 16 0.7 16 -1 16 C-1.02685095 13.52076199 -1.04676547 11.0418116 -1.0625 8.5625 C-1.07506836 7.50192383 -1.07506836 7.50192383 -1.08789062 6.41992188 C-1.09653588 4.61306441 -1.05220011 2.80612397 -1 1 C-0.67 0.67 -0.34 0.34 0 0 Z " fill="#FAFAFE" transform="translate(358,293)"/>
<path d="M0 0 C3.63 0 7.26 0 11 0 C11 2.31 11 4.62 11 7 C7.37 7 3.74 7 0 7 C0 4.69 0 2.38 0 0 Z " fill="#D84692" transform="translate(87,275)"/>
<path d="M0 0 C0.33 0.99 0.66 1.98 1 3 C-2.90456127 6.53269829 -5.80177328 8.63855967 -11 10 C-11 10.66 -11 11.32 -11 12 C-12.32 12.33 -13.64 12.66 -15 13 C-15 13.66 -15 14.32 -15 15 C-22.28571429 18.57142857 -22.28571429 18.57142857 -27 17 C-27 16.01 -27 15.02 -27 14 C-26.41516846 14.19924072 -25.83033691 14.39848145 -25.2277832 14.60375977 C-22.5398649 15.08184101 -21.69538539 14.67110577 -19.35546875 13.33984375 C-18.34419922 12.77124634 -18.34419922 12.77124634 -17.3125 12.19116211 C-16.61125 11.77745361 -15.91 11.36374512 -15.1875 10.9375 C-14.47207031 10.5257251 -13.75664062 10.1139502 -13.01953125 9.68969727 C-8.22604695 6.87539084 -3.99262144 3.8928059 0 0 Z " fill="#4E3BC6" transform="translate(264,224)"/>
<path d="M0 0 C3.96 0 7.92 0 12 0 C12 2.64 12 5.28 12 8 C10.04174127 8.02694851 8.08337774 8.04637218 6.125 8.0625 C5.03445312 8.07410156 3.94390625 8.08570313 2.8203125 8.09765625 C0 8 0 8 -2 7 C-2.33 7.99 -2.66 8.98 -3 10 C-3 9.34 -3 8.68 -3 8 C-3.66 8 -4.32 8 -5 8 C-5 7.34 -5 6.68 -5 6 C-4.34 6 -3.68 6 -3 6 C-3 5.34 -3 4.68 -3 4 C0.96 4.33 4.92 4.66 9 5 C9.33 4.01 9.66 3.02 10 2 C6.7 1.67 3.4 1.34 0 1 C0 0.67 0 0.34 0 0 Z " fill="#E94C9E" transform="translate(70,294)"/>
<path d="M0 0 C0.33 0 0.66 0 1 0 C1.042721 1.66611905 1.04063832 3.33382885 1 5 C0.67 5.33 0.34 5.66 0 6 C-0.15888092 8.28988781 -0.25138073 10.58443441 -0.31640625 12.87890625 C-0.33718735 13.5655687 -0.35796844 14.25223114 -0.37937927 14.95970154 C-0.44494143 17.16052935 -0.50379015 19.36147975 -0.5625 21.5625 C-0.60567892 23.05144514 -0.649293 24.54037773 -0.69335938 26.02929688 C-0.8006293 29.68606553 -0.90187772 33.34297318 -1 37 C-1.33 37 -1.66 37 -2 37 C-3.26675945 31.38779867 -3.2222991 25.91812454 -3.25 20.1875 C-3.270625 19.13240234 -3.29125 18.07730469 -3.3125 16.99023438 C-3.34441926 10.5864326 -2.67445796 5.83454119 0 0 Z " fill="#4E3EBA" transform="translate(156,101)"/>
<path d="M0 0 C1.98 0 3.96 0 6 0 C6 3.63 6 7.26 6 11 C4.02 11 2.04 11 0 11 C0 7.37 0 3.74 0 0 Z " fill="#EAE9FD" transform="translate(174,284)"/>
<path d="M0 0 C0.33 0 0.66 0 1 0 C0.67 13.86 0.34 27.72 0 42 C-0.33 42 -0.66 42 -1 42 C-1 31.77 -1 21.54 -1 11 C-4.3 11 -7.6 11 -11 11 C-11 10.67 -11 10.34 -11 10 C-7.7 10 -4.4 10 -1 10 C-1 9.34 -1 8.68 -1 8 C-4.3 8 -7.6 8 -11 8 C-11 7.67 -11 7.34 -11 7 C-7.37 7 -3.74 7 0 7 C0 4.69 0 2.38 0 0 Z " fill="#FBB3DB" transform="translate(98,275)"/>
<path d="M0 0 C2.56262706 0.3534658 3.77470502 0.77470502 5.625 2.625 C7.46442943 5.80219629 7.2968192 8.10602661 7.1875 11.75 C7.16042969 12.92046875 7.13335937 14.0909375 7.10546875 15.296875 C7.07066406 16.18890625 7.03585937 17.0809375 7 18 C4.39521117 18.0809313 1.79293347 18.14045434 -0.8125 18.1875 C-1.91948242 18.22520508 -1.91948242 18.22520508 -3.04882812 18.26367188 C-8.54974762 18.33834499 -8.54974762 18.33834499 -11.01171875 16.48828125 C-11.33785156 15.99714844 -11.66398437 15.50601562 -12 15 C-8.86501708 13.14223235 -6.62528568 12.79859524 -3 13 C-3.99 13.495 -3.99 13.495 -5 14 C-5 14.66 -5 15.32 -5 16 C-1.37 16.33 2.26 16.66 6 17 C5.71653722 15.08210287 5.4228972 13.16570817 5.125 11.25 C4.96257812 10.18265625 4.80015625 9.1153125 4.6328125 8.015625 C4.06283555 5.29943853 3.47260445 3.33435076 2 1 C1.34 0.67 0.68 0.34 0 0 Z " fill="#412DC1" transform="translate(415,286)"/>
<path d="M0 0 C2.31 1.98 4.62 3.96 7 6 C6.01 6.495 6.01 6.495 5 7 C4.27306096 8.97888961 3.60183749 10.97954558 3 13 C1.02 11.35 -0.96 9.7 -3 8 C-2.34 7.67 -1.68 7.34 -1 7 C-1.20625 6.401875 -1.4125 5.80375 -1.625 5.1875 C-2 3 -2 3 0 0 Z " fill="#F7EDF8" transform="translate(298,190)"/>
<path d="M0 0 C0.66 0 1.32 0 2 0 C2 6.93 2 13.86 2 21 C4.64 21 7.28 21 10 21 C10 21.66 10 22.32 10 23 C6.7 23 3.4 23 0 23 C0 15.41 0 7.82 0 0 Z " fill="#4B3BB7" transform="translate(271,294)"/>
<path d="M0 0 C-0.33 0.66 -0.66 1.32 -1 2 C-1.23274209 4.87910588 -1.41972757 7.74146495 -1.5625 10.625 C-1.60568359 11.42679687 -1.64886719 12.22859375 -1.69335938 13.0546875 C-1.79951457 15.0362511 -1.90026855 17.01810271 -2 19 C-2.33 19 -2.66 19 -3 19 C-3.33 15.04 -3.66 11.08 -4 7 C-4.33 13.93 -4.66 20.86 -5 28 C-5.33 28 -5.66 28 -6 28 C-6 18.76 -6 9.52 -6 0 C-3 -1 -3 -1 0 0 Z " fill="#FDD9F0" transform="translate(134,289)"/>
<path d="M0 0 C1.60379341 -0.05416188 3.20811406 -0.09286638 4.8125 -0.125 C5.70582031 -0.14820313 6.59914063 -0.17140625 7.51953125 -0.1953125 C10 0 10 0 13 2 C13.66 1.34 14.32 0.68 15 0 C17.3828125 -0.1953125 17.3828125 -0.1953125 20.125 -0.125 C21.03507812 -0.10695313 21.94515625 -0.08890625 22.8828125 -0.0703125 C23.58148438 -0.04710937 24.28015625 -0.02390625 25 0 C25 0.33 25 0.66 25 1 C22.69 1.33 20.38 1.66 18 2 C17.67 2.99 17.34 3.98 17 5 C16.01 4.67 15.02 4.34 14 4 C14 5.32 14 6.64 14 8 C11.5625 7.25 11.5625 7.25 9 6 C8.67 4.68 8.34 3.36 8 2 C5.03 2 2.06 2 -1 2 C-0.67 1.34 -0.34 0.68 0 0 Z " fill="#4836C4" transform="translate(314,286)"/>
<path d="M0 0 C1.65 0 3.3 0 5 0 C4.01 0.66 3.02 1.32 2 2 C1.61588725 4.609621 1.39706803 7.0058074 1.3125 9.625 C1.27833984 10.33140625 1.24417969 11.0378125 1.20898438 11.765625 C1.12648692 13.50985688 1.06156665 15.25490395 1 17 C2.65 17 4.3 17 6 17 C5.67 18.98 5.34 20.96 5 23 C4.67 22.01 4.34 21.02 4 20 C3.01 20 2.02 20 1 20 C1 19.34 1 18.68 1 18 C0.34 18 -0.32 18 -1 18 C-1.02698422 15.56242587 -1.04683099 13.12515085 -1.0625 10.6875 C-1.07087891 9.99720703 -1.07925781 9.30691406 -1.08789062 8.59570312 C-1.10307906 5.4516975 -1.00193327 3.00579981 0 0 Z " fill="#E03F93" transform="translate(142,292)"/>
<path d="M0 0 C3.56522996 5.34784493 4.38152553 10.64124125 4 17 C3.67 17.33 3.34 17.66 3 18 C2.84230651 19.41340094 2.72365444 20.83125522 2.625 22.25 C2.23155309 26.16573349 1.53062506 28.86202493 -1 32 C-1.66 32 -2.32 32 -3 32 C-2.79503906 31.33613281 -2.59007812 30.67226562 -2.37890625 29.98828125 C-2.10949219 29.10527344 -1.84007812 28.22226563 -1.5625 27.3125 C-1.29566406 26.44238281 -1.02882813 25.57226562 -0.75390625 24.67578125 C1.60669965 16.29746496 1.10570498 8.52972413 0 0 Z " fill="#E04796" transform="translate(275,140)"/>
<path d="M0 0 C8.75306698 1.38206321 16.12452654 5.11933192 24 9 C23.01 9.99 22.02 10.98 21 12 C20.34 11.67 19.68 11.34 19 11 C19 10.01 19 9.02 19 8 C18.278125 7.855625 17.55625 7.71125 16.8125 7.5625 C14.20833333 7.04166667 11.60416667 6.52083333 9 6 C9 5.34 9 4.68 9 4 C7.35 4.33 5.7 4.66 4 5 C4.33 4.01 4.66 3.02 5 2 C4.01 2.33 3.02 2.66 2 3 C1.34 2.67 0.68 2.34 0 2 C0 1.34 0 0.68 0 0 Z " fill="#4735C1" transform="translate(273,73)"/>
<path d="M0 0 C1.98 0.495 1.98 0.495 4 1 C4 8.59 4 16.18 4 24 C3.67 24 3.34 24 3 24 C3 16.74 3 9.48 3 2 C2.01 2.495 2.01 2.495 1 3 C0.67 9.93 0.34 16.86 0 24 C-0.33 24 -0.66 24 -1 24 C-1.02887236 20.18751574 -1.04675492 16.3750593 -1.0625 12.5625 C-1.07087891 11.47388672 -1.07925781 10.38527344 -1.08789062 9.26367188 C-1.09111328 8.22919922 -1.09433594 7.19472656 -1.09765625 6.12890625 C-1.10289307 5.17056885 -1.10812988 4.21223145 -1.11352539 3.22485352 C-1 1 -1 1 0 0 Z " fill="#C6BEFD" transform="translate(328,293)"/>
<path d="M0 0 C0.33 0.66 0.66 1.32 1 2 C-0.4375 4.625 -0.4375 4.625 -2 7 C-3.65 6.67 -5.3 6.34 -7 6 C-7 6.99 -7 7.98 -7 9 C-9.49064888 9.68707555 -11.37886292 10 -14 10 C-14 9.01 -14 8.02 -14 7 C-9.38 4.69 -4.76 2.38 0 0 Z " fill="#4936C9" transform="translate(193,77)"/>
<path d="M0 0 C5.39882424 4.59474404 10.71333087 9.27676273 16 14 C15.01 14.495 15.01 14.495 14 15 C13.01 14.34 12.02 13.68 11 13 C8.99279077 13.28674418 6.9914056 13.61866701 5 14 C4.34 13.67 3.68 13.34 3 13 C3 12.34 3 11.68 3 11 C3.66 11 4.32 11 5 11 C5.45977011 6.87859195 5.45977011 6.87859195 2.5 4.375 C1.675 3.59125 0.85 2.8075 0 2 C0 1.34 0 0.68 0 0 Z " fill="#4430C0" transform="translate(201,211)"/>
<path d="M0 0 C0.66 0.33 1.32 0.66 2 1 C-0.90646702 5.35970052 -4.73697565 6.48125786 -9.5 8.4375 C-13.07634725 9.90493924 -13.07634725 9.90493924 -16.25 12.25 C-17.1575 12.8275 -18.065 13.405 -19 14 C-19.99 13.67 -20.98 13.34 -22 13 C-6.39137632 2.79552262 -6.39137632 2.79552262 0 0 Z " fill="#E04698" transform="translate(199,99)"/>
<path d="M0 0 C0.66 0 1.32 0 2 0 C2 2.31 2 4.62 2 7 C0.68 7 -0.64 7 -2 7 C-2 11.95 -2 16.9 -2 22 C-4.32613583 18.51079626 -4.24247293 17.05047454 -4.1875 12.9375 C-4.18105469 11.87402344 -4.17460937 10.81054688 -4.16796875 9.71484375 C-4 7 -4 7 -3 5 C-2.01 5 -1.02 5 0 5 C0 3.35 0 1.7 0 0 Z " fill="#412FB9" transform="translate(391,286)"/>
<path d="M0 0 C1.4550293 0.01353516 1.4550293 0.01353516 2.93945312 0.02734375 C5.31406407 0.05073893 7.68814776 0.08351824 10.0625 0.125 C10.0625 1.115 10.0625 2.105 10.0625 3.125 C9.04671875 3.02960938 8.0309375 2.93421875 6.984375 2.8359375 C-1.65845038 2.11043717 -9.40345248 2.16928078 -17.9375 4.125 C-17.9375 3.465 -17.9375 2.805 -17.9375 2.125 C-11.8759737 -0.01040594 -6.38873306 -0.11353866 0 0 Z " fill="#DE4E99" transform="translate(241.9375,114.875)"/>
<path d="M0 0 C1.21236328 0.04060547 1.21236328 0.04060547 2.44921875 0.08203125 C3.06410156 0.11683594 3.67898437 0.15164063 4.3125 0.1875 C4.3125 0.5175 4.3125 0.8475 4.3125 1.1875 C2.0025 1.1875 -0.3075 1.1875 -2.6875 1.1875 C-2.6875 1.8475 -2.6875 2.5075 -2.6875 3.1875 C-3.6775 3.1875 -4.6675 3.1875 -5.6875 3.1875 C-5.6875 10.4475 -5.6875 17.7075 -5.6875 25.1875 C-6.3475 25.1875 -7.0075 25.1875 -7.6875 25.1875 C-7.77451039 21.58348519 -7.82789388 17.97973988 -7.875 14.375 C-7.90013672 13.35083984 -7.92527344 12.32667969 -7.95117188 11.27148438 C-7.96083984 10.28857422 -7.97050781 9.30566406 -7.98046875 8.29296875 C-7.9961792 7.38699951 -8.01188965 6.48103027 -8.02807617 5.54760742 C-7.6875 3.1875 -7.6875 3.1875 -6.31054688 1.38671875 C-4.11977217 -0.2319764 -2.69111638 -0.11700506 0 0 Z " fill="#DD3E90" transform="translate(140.6875,285.8125)"/>
<path d="M0 0 C0.99 0.99 1.98 1.98 3 3 C2.34 3 1.68 3 1 3 C1.61875 3.5775 2.2375 4.155 2.875 4.75 C5.92243786 7.97669891 6.95279288 9.772615 7.125 14.25 C7.08375 15.1575 7.0425 16.065 7 17 C4.28604505 13.45160517 1.84326039 9.76244976 -0.59765625 6.0234375 C-1.97838692 3.90268525 -1.97838692 3.90268525 -4 2 C-2.68 2 -1.36 2 0 2 C0 1.34 0 0.68 0 0 Z " fill="#E44097" transform="translate(268,123)"/>
<path d="M0 0 C3.3 0 6.6 0 10 0 C9.67 0.66 9.34 1.32 9 2 C8.01 2 7.02 2 6 2 C5.67 3.32 5.34 4.64 5 6 C3.35 6 1.7 6 0 6 C0 4.02 0 2.04 0 0 Z " fill="#EDECFE" transform="translate(406,304)"/>
<path d="M0 0 C3.21524305 1.40844718 5.32183868 3.10344786 7.75 5.625 C8.67039062 6.57246094 8.67039062 6.57246094 9.609375 7.5390625 C10.29773438 8.26222656 10.29773438 8.26222656 11 9 C10.34 10.32 9.68 11.64 9 13 C7.97243051 10.94486102 6.99658089 8.9900276 6.25 6.8125 C5.05273288 4.64470576 5.05273288 4.64470576 1.875 4.25 C0.92625 4.1675 -0.0225 4.085 -1 4 C-1 1 -1 1 0 0 Z " fill="#5A4DC0" transform="translate(277,212)"/>
<path d="M0 0 C0.33 0 0.66 0 1 0 C1 4.62 1 9.24 1 14 C1.66 14 2.32 14 3 14 C3.33 9.38 3.66 4.76 4 0 C4.33 0 4.66 0 5 0 C5 5.28 5 10.56 5 16 C3.68 16.33 2.36 16.66 1 17 C0 16 0 16 -0.09765625 12.40234375 C-0.0909822 10.91403133 -0.07902183 9.42573568 -0.0625 7.9375 C-0.05798828 7.17888672 -0.05347656 6.42027344 -0.04882812 5.63867188 C-0.0370068 3.75908129 -0.01907078 1.87953101 0 0 Z " fill="#DCD7FE" transform="translate(236,293)"/>
<path d="M0 0 C1.17755859 -0.01160156 1.17755859 -0.01160156 2.37890625 -0.0234375 C3.05824219 0.10804688 3.73757813 0.23953125 4.4375 0.375 C5.0975 1.365 5.7575 2.355 6.4375 3.375 C4.1275 2.715 1.8175 2.055 -0.5625 1.375 C-0.8925 2.365 -1.2225 3.355 -1.5625 4.375 C-3.18582967 5.76076923 -4.84974465 7.10141268 -6.5625 8.375 C-7.25 6.0625 -7.25 6.0625 -7.5625 3.375 C-5.37652105 0.36749301 -3.63173156 -0.0358985 0 0 Z " fill="#4431C3" transform="translate(354.5625,285.625)"/>
<path d="M0 0 C0.33 0 0.66 0 1 0 C1 3.63 1 7.26 1 11 C3.31 11 5.62 11 8 11 C7.67 11.66 7.34 12.32 7 13 C5.63875 12.938125 5.63875 12.938125 4.25 12.875 C1.1217954 12.99531556 -0.38614006 13.3914708 -3 15 C-3.33 13.68 -3.66 12.36 -4 11 C-3.01 10.67 -2.02 10.34 -1 10 C-0.67 6.7 -0.34 3.4 0 0 Z " fill="#4431C1" transform="translate(173,284)"/>
<path d="M0 0 C0.33 0.99 0.66 1.98 1 3 C4.3 3 7.6 3 11 3 C11 3.33 11 3.66 11 4 C3.19636521 5.14500285 -4.16992004 4.79773542 -12 4 C-12 3.01 -12 2.02 -12 1 C-11.34 1.33 -10.68 1.66 -10 2 C-8.08596924 2.19668734 -8.08596924 2.19668734 -6 2.1875 C-5.29875 2.20167969 -4.5975 2.21585937 -3.875 2.23046875 C-1.75475062 2.16512323 -1.75475062 2.16512323 0 0 Z " fill="#FEE0FA" transform="translate(147,314)"/>
<path d="M0 0 C1.98 0.495 1.98 0.495 4 1 C4 5.95 4 10.9 4 16 C3.67 16 3.34 16 3 16 C3 11.38 3 6.76 3 2 C2.01 2.495 2.01 2.495 1 3 C0.53045739 6.04581269 0.53045739 6.04581269 0.375 9.5625 C0.30023438 10.76003906 0.22546875 11.95757812 0.1484375 13.19140625 C0.09945313 14.11824219 0.05046875 15.04507812 0 16 C-0.33 16 -0.66 16 -1 16 C-1.02685095 13.52076199 -1.04676547 11.0418116 -1.0625 8.5625 C-1.07506836 7.50192383 -1.07506836 7.50192383 -1.08789062 6.41992188 C-1.09653588 4.61306441 -1.05220011 2.80612397 -1 1 C-0.67 0.67 -0.34 0.34 0 0 Z " fill="#BFB6F4" transform="translate(358,293)"/>
<path d="M0 0 C1.65 0 3.3 0 5 0 C4.67 0.99 4.34 1.98 4 3 C2.35 3.33 0.7 3.66 -1 4 C-1 9.94 -1 15.88 -1 22 C-1.33 22 -1.66 22 -2 22 C-2.19476139 19.39619004 -2.38108614 16.79224467 -2.5625 14.1875 C-2.61857422 13.44951172 -2.67464844 12.71152344 -2.73242188 11.95117188 C-2.95769724 8.63211484 -3.06255812 6.18767436 -2 3 C-1.34 3 -0.68 3 0 3 C0 2.01 0 1.02 0 0 Z " fill="#4B38CD" transform="translate(237,287)"/>
<path d="M0 0 C0.66 0 1.32 0 2 0 C2 4.62 2 9.24 2 14 C1.01 13.34 0.02 12.68 -1 12 C-3.32387947 11.60612212 -5.65793749 11.26513915 -8 11 C-8 10.67 -8 10.34 -8 10 C-4.535 9.505 -4.535 9.505 -1 9 C-0.67 6.03 -0.34 3.06 0 0 Z " fill="#FABFE4" transform="translate(146,275)"/>
<path d="M0 0 C0.33 0 0.66 0 1 0 C1 8.91 1 17.82 1 27 C-1.475 26.01 -1.475 26.01 -4 25 C-3.01 24.34 -2.02 23.68 -1 23 C-0.49095616 20.5842887 -0.49095616 20.5842887 -0.48828125 17.7734375 C-0.45283203 16.7421875 -0.41738281 15.7109375 -0.38085938 14.6484375 C-0.35830078 13.56820312 -0.33574219 12.48796875 -0.3125 11.375 C-0.27833984 10.28703125 -0.24417969 9.1990625 -0.20898438 8.078125 C-0.12631666 5.38551937 -0.05722913 2.69324709 0 0 Z " fill="#D64291" transform="translate(239,204)"/>
<path d="M0 0 C3.3 0 6.6 0 10 0 C10.47877076 4.11742854 10.32165374 5.58006317 7.75 8.9375 C5 11 5 11 2.6875 10.8125 C2.130625 10.544375 1.57375 10.27625 1 10 C4 8 4 8 7 8 C7 7.01 7 6.02 7 5 C7.66 5 8.32 5 9 5 C9 3.68 9 2.36 9 1 C6.03 1 3.06 1 0 1 C0 0.67 0 0.34 0 0 Z " fill="#6456C8" transform="translate(412,306)"/>
<path d="M0 0 C0.33 0 0.66 0 1 0 C1.10957031 0.86882812 1.21914062 1.73765625 1.33203125 2.6328125 C2.16969108 8.72116931 3.06329647 13.54612202 6 19 C5.58203125 21.15234375 5.58203125 21.15234375 5 23 C1.23042277 14.95239094 -0.17401319 8.8746729 0 0 Z " fill="#FDCFEE" transform="translate(203,148)"/>
<path d="M0 0 C2 1 2 1 2.703125 2.99609375 C2.88359375 3.80175781 3.0640625 4.60742188 3.25 5.4375 C3.53617187 6.64212891 3.53617187 6.64212891 3.828125 7.87109375 C3.88484375 8.57363281 3.9415625 9.27617188 4 10 C3.34 10.66 2.68 11.32 2 12 C2 11.01 2 10.02 2 9 C1.01 9.33 0.02 9.66 -1 10 C-1.125 3.375 -1.125 3.375 0 0 Z " fill="#4B37C8" transform="translate(323,101)"/>
<path d="M0 0 C1.4540625 0.0309375 1.4540625 0.0309375 2.9375 0.0625 C2.9375 1.0525 2.9375 2.0425 2.9375 3.0625 C2.2775 3.0625 1.6175 3.0625 0.9375 3.0625 C0.9375 4.0525 0.9375 5.0425 0.9375 6.0625 C-0.3825 5.7325 -1.7025 5.4025 -3.0625 5.0625 C-3.625 3.125 -3.625 3.125 -4.0625 1.0625 C-3.0625 0.0625 -3.0625 0.0625 0 0 Z " fill="#422AD5" transform="translate(418.0625,307.9375)"/>
<path d="M0 0 C0.99 0 1.98 0 3 0 C2.80664062 0.57105469 2.61328125 1.14210937 2.4140625 1.73046875 C0.16455191 8.7351329 -1.02961522 15.716406 -2 23 C-2.33 23 -2.66 23 -3 23 C-3.39260432 16.29664471 -2.62654134 10.67169028 -0.65625 4.25 C0.09333333 2.070625 0.09333333 2.070625 0 0 Z " fill="#DC4794" transform="translate(205,134)"/>
<path d="M0 0 C0 0.33 0 0.66 0 1 C-1.0725 1.12375 -2.145 1.2475 -3.25 1.375 C-6.84707986 1.75760531 -6.84707986 1.75760531 -9.125 3.1875 C-11 4 -11 4 -13.75 3.125 C-14.4925 2.75375 -15.235 2.3825 -16 2 C-10.172082 -1.12209893 -6.45972632 -0.96895895 0 0 Z " fill="#5847CC" transform="translate(239,66)"/>
<path d="M0 0 C0.66 1.32 1.32 2.64 2 4 C2.66 4 3.32 4 4 4 C4.66 5.65 5.32 7.3 6 9 C5.01 9 4.02 9 3 9 C3 8.34 3 7.68 3 7 C1.68 7.33 0.36 7.66 -1 8 C-1.125 2.25 -1.125 2.25 0 0 Z " fill="#422ACD" transform="translate(399,305)"/>
<path d="M0 0 C1.98 0 3.96 0 6 0 C6 1.65 6 3.3 6 5 C4.02 5 2.04 5 0 5 C0 3.35 0 1.7 0 0 Z " fill="#EFECFF" transform="translate(406,293)"/>
<path d="M0 0 C3.4645173 1.21726284 5.43854318 2.43854318 8 5 C10.10332891 5.71447643 10.10332891 5.71447643 12 6 C12.33 7.65 12.66 9.3 13 11 C8.34148756 8.04582138 3.98497101 4.8317029 0 1 C0 0.67 0 0.34 0 0 Z " fill="#5040BE" transform="translate(200,230)"/>
<path d="M0 0 C1.98 0 3.96 0 6 0 C5.67 1.65 5.34 3.3 5 5 C2.69 4.67 0.38 4.34 -2 4 C-1.34 2.68 -0.68 1.36 0 0 Z " fill="#422BCD" transform="translate(183,311)"/>
<path d="M0 0 C2.56262706 0.3534658 3.77470502 0.77470502 5.625 2.625 C7.46442943 5.80219629 7.2968192 8.10602661 7.1875 11.75 C7.16042969 12.92046875 7.13335937 14.0909375 7.10546875 15.296875 C7.07066406 16.18890625 7.03585937 17.0809375 7 18 C6.67 18 6.34 18 6 18 C5.87882812 17.10796875 5.75765625 16.2159375 5.6328125 15.296875 C5.46523438 14.12640625 5.29765625 12.9559375 5.125 11.75 C4.88136719 10.00976562 4.88136719 10.00976562 4.6328125 8.234375 C4.07810861 5.39922177 3.55010561 3.4112754 2 1 C1.34 0.67 0.68 0.34 0 0 Z " fill="#5141C1" transform="translate(415,286)"/>
<path d="M0 0 C0.66 0 1.32 0 2 0 C4.14710968 5.62338249 6.13236819 11.27789404 8 17 C5.15676575 14.53197261 3.84119176 11.91545546 2.3125 8.5 C1.87550781 7.5409375 1.43851563 6.581875 0.98828125 5.59375 C0 3 0 3 0 0 Z " fill="#DC4C9A" transform="translate(185,167)"/>
<path d="M0 0 C1 2 1 2 -0.0625 5.5625 C-2 9 -2 9 -5.1875 9.9375 C-6.115625 9.958125 -7.04375 9.97875 -8 10 C-7.59007812 9.52949219 -7.18015625 9.05898437 -6.7578125 8.57421875 C-6.21898437 7.95160156 -5.68015625 7.32898438 -5.125 6.6875 C-4.59132813 6.07261719 -4.05765625 5.45773438 -3.5078125 4.82421875 C-1.8359553 2.86501788 -1.8359553 2.86501788 0 0 Z " fill="#E04092" transform="translate(271,172)"/>
<path d="M0 0 C2.31 0 4.62 0 7 0 C7 1.32 7 2.64 7 4 C4.69 4 2.38 4 0 4 C0 2.68 0 1.36 0 0 Z " fill="#F62E98" transform="translate(89,277)"/>
<path d="M0 0 C0 0.99 0 1.98 0 3 C-2.1875 4.75 -2.1875 4.75 -5 6 C-7.8125 5.6875 -7.8125 5.6875 -10 5 C-10 4.01 -10 3.02 -10 2 C-9.46375 2.226875 -8.9275 2.45375 -8.375 2.6875 C-4.93918099 3.13958145 -2.94233306 1.67178015 0 0 Z " fill="#4734C0" transform="translate(247,236)"/>
<path d="M0 0 C0.66 0.33 1.32 0.66 2 1 C2.32523926 4.57763189 2.42956587 6.39542581 0.3125 9.375 C-2.38790237 11.27258004 -3.77060081 11.35882213 -7 11 C-5.68 10.67 -4.36 10.34 -3 10 C-3 9.01 -3 8.02 -3 7 C-2.01 7 -1.02 7 0 7 C0 4.69 0 2.38 0 0 Z " fill="#DF59A0" transform="translate(309,213)"/>
<path d="M0 0 C-0.33 2.31 -0.66 4.62 -1 7 C-3.99693138 6.00102287 -5.02709413 5.34869747 -7 3 C-7 2.34 -7 1.68 -7 1 C-4.50935112 0.31292445 -2.62113708 0 0 0 Z " fill="#E94098" transform="translate(294,208)"/>
<path d="M0 0 C3.63 1.98 7.26 3.96 11 6 C6.74938644 7.41687119 4.28148375 6.19320039 0 5 C0 3.35 0 1.7 0 0 Z " fill="#4A38C3" transform="translate(298,83)"/>
<path d="M0 0 C2.05078125 0.03255208 4.1015625 0.06510417 6.15234375 0.09765625 C3.15234375 2.09765625 3.15234375 2.09765625 1.02734375 2.72265625 C-1.01775481 3.91536777 -1.01775481 3.91536777 -1.32421875 6.00390625 C-1.57358413 8.02732821 -1.71639818 10.0631561 -1.84765625 12.09765625 C-2.17765625 12.09765625 -2.50765625 12.09765625 -2.84765625 12.09765625 C-2.87452904 10.28523573 -2.8939934 8.47270392 -2.91015625 6.66015625 C-2.92175781 5.65082031 -2.93335938 4.64148438 -2.9453125 3.6015625 C-2.81063978 0.1485539 -2.81063978 0.1485539 0 0 Z " fill="#E53792" transform="translate(150.84765625,275.90234375)"/>
<path d="M0 0 C1.67588141 2.51382212 2.94030311 4.82947288 4.1875 7.5625 C4.55230469 8.34753906 4.91710937 9.13257813 5.29296875 9.94140625 C5.52628906 10.62074219 5.75960937 11.30007812 6 12 C5.67 12.66 5.34 13.32 5 14 C4.34 13.67 3.68 13.34 3 13 C2.66666667 11.66666667 2.33333333 10.33333333 2 9 C1.34 8.67 0.68 8.34 0 8 C0 5.36 0 2.72 0 0 Z " fill="#513FC3" transform="translate(178,172)"/>
<path d="M0 0 C-2.85306797 2.32472205 -5.54074837 3.7508258 -9 5 C-9 3.35 -9 1.7 -9 0 C-5.93109813 -1.53445094 -3.29905734 -0.54984289 0 0 Z " fill="#4734C4" transform="translate(194,93)"/>
<path d="M0 0 C2.2477975 2.05233685 3.0022242 3.00667261 4 6 C3.0625 9.1875 3.0625 9.1875 2 12 C1.67 12 1.34 12 1 12 C0.67 9.36 0.34 6.72 0 4 C-2.97 3.505 -2.97 3.505 -6 3 C-6 2.67 -6 2.34 -6 2 C-4.02 2 -2.04 2 0 2 C0 1.34 0 0.68 0 0 Z " fill="#422DC6" transform="translate(180,281)"/>
<path d="M0 0 C-2.6860286 1.79068573 -4.6626589 2.66055791 -7.6875 3.625 C-8.89986328 4.01558594 -8.89986328 4.01558594 -10.13671875 4.4140625 C-10.75160156 4.60742188 -11.36648437 4.80078125 -12 5 C-12.33 3.68 -12.66 2.36 -13 1 C-8.62426048 0.40667939 -4.42471556 -0.13827236 0 0 Z " fill="#4B38C1" transform="translate(214,85)"/>
<path d="M0 0 C1.32 0.33 2.64 0.66 4 1 C3.34 1.66 2.68 2.32 2 3 C1.35232207 5.57061311 1.35232207 5.57061311 1 8 C4.3 8 7.6 8 11 8 C11 8.33 11 8.66 11 9 C7.37 9 3.74 9 0 9 C0 6.03 0 3.06 0 0 Z " fill="#FEF0FF" transform="translate(71,285)"/>
<path d="M0 0 C1.8125 1.4375 1.8125 1.4375 3 3 C2.34 3 1.68 3 1 3 C0.67 4.32 0.34 5.64 0 7 C-1.65 5.02 -3.3 3.04 -5 1 C-2.6875 0.3125 -2.6875 0.3125 0 0 Z " fill="#4431C3" transform="translate(199,223)"/>
<path d="M0 0 C2.25 0.125 2.25 0.125 5 1 C7.1875 3.875 7.1875 3.875 9 7 C9.99 8.485 9.99 8.485 11 10 C7.81326038 8.59698853 5.67778594 6.92234929 3.25 4.4375 C2.63640625 3.81746094 2.0228125 3.19742188 1.390625 2.55859375 C0 1 0 1 0 0 Z " fill="#DD3E94" transform="translate(210,208)"/>
<path d="M0 0 C0.33 0 0.66 0 1 0 C1 3.63 1 7.26 1 11 C3.97 11 6.94 11 10 11 C10 11.33 10 11.66 10 12 C6.7 12.33 3.4 12.66 0 13 C-1.36421031 10.27157939 -0.87807211 8.39046682 -0.5625 5.375 C-0.40974609 3.87066406 -0.40974609 3.87066406 -0.25390625 2.3359375 C-0.17011719 1.56507813 -0.08632812 0.79421875 0 0 Z " fill="#E43890" transform="translate(69,284)"/>
<path d="M0 0 C0.66 0 1.32 0 2 0 C1.67 1.32 1.34 2.64 1 4 C1.99 4.66 2.98 5.32 4 6 C3.071875 6.12375 3.071875 6.12375 2.125 6.25 C-0.53489979 6.91214206 -0.53489979 6.91214206 -2 11 C-2 8.03 -2 5.06 -2 2 C-1.34 2 -0.68 2 0 2 C0 1.34 0 0.68 0 0 Z " fill="#4431C3" transform="translate(282,287)"/>
<path d="M0 0 C0.66 0 1.32 0 2 0 C2.99 3.96 3.98 7.92 5 12 C1.61053312 9.74035542 1.14663284 8.79270862 0 5 C-0.125 2.1875 -0.125 2.1875 0 0 Z " fill="#FCD4EE" transform="translate(179,154)"/>
<path d="M0 0 C1 3 1 3 1 5 C1.99 5.33 2.98 5.66 4 6 C2.68 6.99 1.36 7.98 0 9 C-1.4606285 6.35261084 -2 5.10551666 -2 2 C-1.34 1.34 -0.68 0.68 0 0 Z " fill="#E6348F" transform="translate(211,120)"/>
<path d="M0 0 C0.66 0 1.32 0 2 0 C2 2.31 2 4.62 2 7 C1.34 7 0.68 7 0 7 C-0.33 7.66 -0.66 8.32 -1 9 C-1.09765625 2.84765625 -1.09765625 2.84765625 -1 1 C-0.67 0.67 -0.34 0.34 0 0 Z " fill="#FEDDF4" transform="translate(85,275)"/>
<path d="M0 0 C5.75 1.625 5.75 1.625 8 5 C7.67 5.99 7.34 6.98 7 8 C5.83035398 6.8572081 4.66435444 5.71068285 3.5 4.5625 C2.8503125 3.92441406 2.200625 3.28632813 1.53125 2.62890625 C0 1 0 1 0 0 Z " fill="#FACFEB" transform="translate(285,187)"/>
<path d="M0 0 C0.33 0.66 0.66 1.32 1 2 C1.66 2.33 2.32 2.66 3 3 C-0.96 4.98 -0.96 4.98 -5 7 C-5.33 5.35 -5.66 3.7 -6 2 C-4.35 2 -2.7 2 -1 2 C-0.67 1.34 -0.34 0.68 0 0 Z " fill="#4E39CA" transform="translate(182,96)"/>
<path d="M0 0 C-1.27004977 3.81014932 -2.51113397 4.17627457 -6 6 C-7.65369357 6.69822617 -9.31727014 7.37498605 -11 8 C-3.21621622 0 -3.21621622 0 0 0 Z " fill="#FDD6F3" transform="translate(224,120)"/>
<path d="M0 0 C2.97 1.65 5.94 3.3 9 5 C9 5.99 9 6.98 9 8 C8.67 7.34 8.34 6.68 8 6 C6.67511887 5.63451555 5.33981486 5.3062434 4 5 C2.6520257 4.36345658 1.31403276 3.70394612 0 3 C0 2.01 0 1.02 0 0 Z " fill="#4E3DC2" transform="translate(309,90)"/>
<path d="M0 0 C0.66 0 1.32 0 2 0 C2 3 2 6 2 9 C0.68 7.35 -0.64 5.7 -2 4 C-1.34 2.68 -0.68 1.36 0 0 Z " fill="#4633B6" transform="translate(297,182)"/>
<path d="M0 0 C1.32 0.66 2.64 1.32 4 2 C4 2.99 4 3.98 4 5 C2.02 4.34 0.04 3.68 -2 3 C-1.34 2.01 -0.68 1.02 0 0 Z " fill="#4A3ABD" transform="translate(277,212)"/>
<path d="M0 0 C0.33 0.66 0.66 1.32 1 2 C0.01 2 -0.98 2 -2 2 C-2.33 2.99 -2.66 3.98 -3 5 C-5.475 4.01 -5.475 4.01 -8 3 C-5.08235 1.0549 -3.37462715 0.54723683 0 0 Z " fill="#513FC5" transform="translate(217,69)"/>
<path d="M0 0 C4.55384615 -0.36923077 4.55384615 -0.36923077 6.8125 1.5 C7.204375 1.995 7.59625 2.49 8 3 C7.67 3.99 7.34 4.98 7 6 C6.67 5.01 6.34 4.02 6 3 C5.01 3 4.02 3 3 3 C3 2.34 3 1.68 3 1 C2.01 0.67 1.02 0.34 0 0 Z " fill="#4D3DBB" transform="translate(243,286)"/>
<path d="M0 0 C0.99 0 1.98 0 3 0 C3 0.66 3 1.32 3 2 C3.99 1.67 4.98 1.34 6 1 C5.67 2.65 5.34 4.3 5 6 C3.31237149 4.3545622 1.6459651 2.68711423 0 1 C0 0.67 0 0.34 0 0 Z " fill="#4836C3" transform="translate(182,209)"/>
<path d="M0 0 C0.66 0.33 1.32 0.66 2 1 C0.68 3.31 -0.64 5.62 -2 8 C-2.33 8 -2.66 8 -3 8 C-3 6.02 -3 4.04 -3 2 C-2.01 2 -1.02 2 0 2 C0 1.34 0 0.68 0 0 Z " fill="#4A3ABD" transform="translate(310,186)"/>
<path d="M0 0 C1.9375 1.0625 1.9375 1.0625 4 3 C4.75 6.6875 4.75 6.6875 5 10 C4.34 10 3.68 10 3 10 C3 8.35 3 6.7 3 5 C2.34 5 1.68 5 1 5 C0.67 3.35 0.34 1.7 0 0 Z " fill="#E34195" transform="translate(279,120)"/>
</svg>
